<svg xmlns="http://www.w3.org/2000/svg" xmlns:xlink="http://www.w3.org/1999/xlink" width="500" zoomAndPan="magnify" viewBox="0 0 375 374.999991" height="500" preserveAspectRatio="xMidYMid meet" version="1.0"><path fill="#ffffff" d="M 59.839844 373.671875 L 6.648438 373.671875 C 6.210938 373.671875 5.78125 373.628906 5.351562 373.542969 C 4.921875 373.457031 4.507812 373.332031 4.105469 373.164062 C 3.699219 372.996094 3.316406 372.792969 2.953125 372.550781 C 2.59375 372.308594 2.257812 372.03125 1.949219 371.722656 C 1.640625 371.414062 1.363281 371.078125 1.121094 370.714844 C 0.878906 370.351562 0.671875 369.96875 0.507812 369.566406 C 0.339844 369.164062 0.214844 368.746094 0.128906 368.316406 C 0.0429688 367.890625 0 367.457031 0 367.019531 L 0 234.042969 C 0 233.605469 0.0429688 233.171875 0.128906 232.746094 C 0.214844 232.316406 0.339844 231.902344 0.507812 231.5 C 0.671875 231.09375 0.878906 230.710938 1.121094 230.347656 C 1.363281 229.984375 1.640625 229.648438 1.949219 229.339844 C 2.257812 229.03125 2.59375 228.757812 2.953125 228.515625 C 3.316406 228.273438 3.699219 228.066406 4.105469 227.898438 C 4.507812 227.734375 4.921875 227.605469 5.351562 227.519531 C 5.78125 227.4375 6.210938 227.394531 6.648438 227.394531 L 59.839844 227.394531 C 60.277344 227.394531 60.710938 227.4375 61.136719 227.519531 C 61.566406 227.605469 61.980469 227.734375 62.386719 227.898438 C 62.789062 228.066406 63.171875 228.273438 63.535156 228.515625 C 63.898438 228.757812 64.234375 229.03125 64.542969 229.339844 C 64.851562 229.648438 65.125 229.984375 65.367188 230.347656 C 65.613281 230.710938 65.816406 231.09375 65.984375 231.5 C 66.148438 231.902344 66.277344 232.316406 66.363281 232.746094 C 66.445312 233.171875 66.488281 233.605469 66.488281 234.042969 L 66.488281 367.019531 C 66.488281 367.457031 66.445312 367.890625 66.363281 368.316406 C 66.277344 368.746094 66.148438 369.164062 65.984375 369.566406 C 65.816406 369.96875 65.613281 370.351562 65.367188 370.714844 C 65.125 371.078125 64.851562 371.414062 64.542969 371.722656 C 64.234375 372.03125 63.898438 372.308594 63.535156 372.550781 C 63.171875 372.792969 62.789062 372.996094 62.386719 373.164062 C 61.980469 373.332031 61.566406 373.457031 61.136719 373.542969 C 60.710938 373.628906 60.277344 373.671875 59.839844 373.671875 Z M 13.296875 360.371094 L 53.191406 360.371094 L 53.191406 240.691406 L 13.296875 240.691406 Z M 13.296875 360.371094 " fill-opacity="1" fill-rule="nonzero"/><path fill="#ffffff" d="M 232.710938 307.179688 L 152.925781 307.179688 C 152.488281 307.179688 152.054688 307.136719 151.628906 307.054688 C 151.199219 306.96875 150.785156 306.839844 150.382812 306.675781 C 149.976562 306.507812 149.59375 306.304688 149.230469 306.058594 C 148.867188 305.816406 148.53125 305.542969 148.222656 305.234375 C 147.914062 304.925781 147.640625 304.589844 147.398438 304.226562 C 147.15625 303.863281 146.949219 303.480469 146.78125 303.078125 C 146.617188 302.671875 146.488281 302.257812 146.40625 301.828125 C 146.320312 301.402344 146.277344 300.96875 146.277344 300.53125 C 146.277344 300.09375 146.320312 299.664062 146.40625 299.234375 C 146.488281 298.804688 146.617188 298.390625 146.78125 297.988281 C 146.949219 297.585938 147.15625 297.199219 147.398438 296.839844 C 147.640625 296.476562 147.914062 296.140625 148.222656 295.832031 C 148.53125 295.523438 148.867188 295.246094 149.230469 295.003906 C 149.59375 294.761719 149.976562 294.554688 150.382812 294.390625 C 150.785156 294.222656 151.199219 294.097656 151.628906 294.011719 C 152.054688 293.925781 152.488281 293.882812 152.925781 293.882812 L 232.710938 293.882812 C 233.148438 293.882812 233.582031 293.839844 234.007812 293.753906 C 234.4375 293.667969 234.851562 293.542969 235.257812 293.375 C 235.660156 293.207031 236.042969 293.003906 236.40625 292.761719 C 236.769531 292.519531 237.105469 292.242188 237.414062 291.933594 C 237.722656 291.625 237.996094 291.289062 238.238281 290.925781 C 238.480469 290.5625 238.6875 290.179688 238.855469 289.777344 C 239.019531 289.375 239.148438 288.957031 239.234375 288.53125 C 239.320312 288.101562 239.359375 287.671875 239.363281 287.234375 C 239.359375 286.144531 239.304688 285.058594 239.199219 283.976562 C 239.089844 282.894531 238.929688 281.820312 238.714844 280.75 C 238.503906 279.683594 238.238281 278.628906 237.921875 277.589844 C 237.605469 276.546875 237.238281 275.523438 236.820312 274.519531 C 236.402344 273.511719 235.9375 272.53125 235.425781 271.570312 C 234.910156 270.609375 234.351562 269.679688 233.746094 268.773438 C 233.140625 267.867188 232.492188 266.996094 231.804688 266.15625 C 231.113281 265.3125 230.382812 264.507812 229.613281 263.738281 C 228.84375 262.96875 228.039062 262.238281 227.195312 261.546875 C 226.355469 260.855469 225.480469 260.210938 224.578125 259.605469 C 223.671875 259 222.742188 258.441406 221.78125 257.925781 C 220.820312 257.414062 219.839844 256.949219 218.832031 256.53125 C 217.828125 256.113281 216.804688 255.746094 215.761719 255.429688 C 214.722656 255.113281 213.667969 254.847656 212.601562 254.632812 C 211.53125 254.421875 210.457031 254.261719 209.375 254.152344 C 208.292969 254.046875 207.207031 253.992188 206.117188 253.988281 L 166.222656 253.988281 C 164.882812 253.988281 163.652344 253.617188 162.535156 252.871094 C 158.769531 250.785156 154.882812 248.953125 150.875 247.382812 C 146.871094 245.8125 142.777344 244.511719 138.59375 243.480469 C 134.414062 242.453125 130.1875 241.707031 125.90625 241.238281 C 121.625 240.769531 117.335938 240.589844 113.03125 240.691406 C 108.726562 240.574219 104.433594 240.746094 100.152344 241.203125 C 95.871094 241.664062 91.640625 242.40625 87.457031 243.4375 C 83.277344 244.464844 79.179688 245.769531 75.175781 247.347656 C 71.167969 248.929688 67.285156 250.769531 63.527344 252.871094 C 63.164062 253.109375 62.78125 253.308594 62.378906 253.472656 C 61.976562 253.632812 61.5625 253.757812 61.136719 253.839844 C 60.710938 253.917969 60.28125 253.957031 59.847656 253.957031 C 59.414062 253.953125 58.984375 253.90625 58.558594 253.820312 C 58.132812 253.734375 57.71875 253.605469 57.320312 253.4375 C 56.917969 253.269531 56.539062 253.066406 56.179688 252.824219 C 55.820312 252.582031 55.484375 252.304688 55.179688 252 C 54.871094 251.691406 54.597656 251.355469 54.359375 250.996094 C 54.117188 250.632812 53.914062 250.253906 53.75 249.851562 C 53.582031 249.449219 53.457031 249.039062 53.371094 248.613281 C 53.285156 248.1875 53.242188 247.757812 53.242188 247.324219 C 53.242188 246.890625 53.28125 246.457031 53.363281 246.03125 C 53.449219 245.605469 53.570312 245.191406 53.734375 244.792969 C 53.898438 244.390625 54.101562 244.007812 54.339844 243.644531 C 54.578125 243.28125 54.851562 242.945312 55.15625 242.636719 C 55.460938 242.328125 55.792969 242.050781 56.152344 241.808594 C 60.449219 239.335938 64.898438 237.167969 69.496094 235.304688 C 74.089844 233.441406 78.792969 231.902344 83.597656 230.683594 C 88.40625 229.464844 93.273438 228.578125 98.203125 228.027344 C 103.132812 227.476562 108.074219 227.265625 113.03125 227.394531 C 117.808594 227.308594 122.570312 227.527344 127.320312 228.050781 C 132.066406 228.574219 136.765625 229.398438 141.40625 230.519531 C 146.050781 231.640625 150.605469 233.050781 155.066406 234.753906 C 159.53125 236.457031 163.871094 238.4375 168.082031 240.691406 L 206.117188 240.691406 C 207.640625 240.691406 209.160156 240.769531 210.675781 240.921875 C 212.195312 241.070312 213.699219 241.296875 215.191406 241.59375 C 216.6875 241.894531 218.164062 242.265625 219.621094 242.707031 C 221.078125 243.152344 222.511719 243.664062 223.917969 244.25 C 225.328125 244.832031 226.703125 245.484375 228.046875 246.203125 C 229.390625 246.921875 230.695312 247.703125 231.960938 248.550781 C 233.230469 249.398438 234.449219 250.304688 235.628906 251.273438 C 236.804688 252.238281 237.933594 253.261719 239.011719 254.339844 C 240.089844 255.417969 241.113281 256.542969 242.078125 257.722656 C 243.046875 258.898438 243.953125 260.121094 244.800781 261.390625 C 245.644531 262.65625 246.429688 263.960938 247.148438 265.304688 C 247.867188 266.648438 248.519531 268.023438 249.101562 269.429688 C 249.6875 270.839844 250.199219 272.269531 250.644531 273.730469 C 251.085938 275.1875 251.457031 276.664062 251.757812 278.15625 C 252.054688 279.652344 252.28125 281.15625 252.429688 282.671875 C 252.582031 284.191406 252.65625 285.710938 252.660156 287.234375 C 252.660156 287.886719 252.625 288.539062 252.5625 289.1875 C 252.496094 289.839844 252.402344 290.484375 252.273438 291.125 C 252.144531 291.765625 251.984375 292.398438 251.796875 293.023438 C 251.605469 293.648438 251.386719 294.261719 251.136719 294.863281 C 250.886719 295.46875 250.605469 296.054688 250.296875 296.632812 C 249.988281 297.207031 249.652344 297.769531 249.292969 298.3125 C 248.929688 298.855469 248.539062 299.378906 248.125 299.882812 C 247.710938 300.386719 247.273438 300.871094 246.8125 301.332031 C 246.347656 301.792969 245.867188 302.230469 245.359375 302.644531 C 244.855469 303.0625 244.332031 303.449219 243.789062 303.8125 C 243.246094 304.175781 242.6875 304.511719 242.109375 304.820312 C 241.535156 305.128906 240.945312 305.40625 240.34375 305.65625 C 239.738281 305.90625 239.125 306.125 238.5 306.316406 C 237.875 306.507812 237.242188 306.664062 236.601562 306.792969 C 235.960938 306.921875 235.316406 307.019531 234.667969 307.082031 C 234.015625 307.148438 233.367188 307.179688 232.710938 307.179688 Z M 232.710938 307.179688 " fill-opacity="1" fill-rule="nonzero"/><path fill="#ffffff" d="M 221.675781 360.371094 L 59.839844 360.371094 C 59.402344 360.371094 58.972656 360.328125 58.542969 360.246094 C 58.113281 360.160156 57.699219 360.03125 57.296875 359.867188 C 56.894531 359.699219 56.507812 359.496094 56.144531 359.25 C 55.785156 359.007812 55.449219 358.734375 55.140625 358.425781 C 54.832031 358.117188 54.554688 357.78125 54.3125 357.417969 C 54.070312 357.054688 53.863281 356.671875 53.699219 356.269531 C 53.53125 355.863281 53.40625 355.449219 53.320312 355.019531 C 53.234375 354.59375 53.191406 354.160156 53.191406 353.722656 C 53.191406 353.285156 53.234375 352.855469 53.320312 352.425781 C 53.40625 351.996094 53.53125 351.582031 53.699219 351.179688 C 53.863281 350.777344 54.070312 350.390625 54.3125 350.03125 C 54.554688 349.667969 54.832031 349.332031 55.140625 349.023438 C 55.449219 348.714844 55.785156 348.4375 56.144531 348.195312 C 56.507812 347.953125 56.894531 347.746094 57.296875 347.582031 C 57.699219 347.414062 58.113281 347.289062 58.542969 347.203125 C 58.972656 347.117188 59.402344 347.074219 59.839844 347.074219 L 221.675781 347.074219 C 225.015625 347.074219 228.316406 346.71875 231.578125 346.007812 C 234.84375 345.296875 237.992188 344.246094 241.03125 342.855469 C 244.066406 341.46875 246.917969 339.769531 249.589844 337.761719 C 252.261719 335.757812 254.6875 333.492188 256.867188 330.960938 L 356.335938 215.800781 C 356.808594 215.261719 357.222656 214.683594 357.585938 214.0625 C 357.945312 213.445312 358.246094 212.796875 358.484375 212.121094 C 358.722656 211.445312 358.894531 210.753906 359.003906 210.042969 C 359.109375 209.335938 359.148438 208.625 359.121094 207.90625 C 359.09375 207.191406 359 206.484375 358.839844 205.785156 C 358.675781 205.085938 358.453125 204.410156 358.160156 203.753906 C 357.871094 203.097656 357.523438 202.476562 357.117188 201.886719 C 356.707031 201.296875 356.25 200.75 355.738281 200.25 C 355.148438 199.675781 354.535156 199.132812 353.898438 198.613281 C 353.257812 198.097656 352.597656 197.609375 351.917969 197.152344 C 351.234375 196.691406 350.535156 196.265625 349.816406 195.871094 C 349.09375 195.476562 348.359375 195.113281 347.605469 194.78125 C 346.855469 194.453125 346.089844 194.15625 345.308594 193.898438 C 344.53125 193.636719 343.742188 193.410156 342.941406 193.21875 C 342.144531 193.027344 341.335938 192.875 340.523438 192.757812 C 339.710938 192.636719 338.894531 192.554688 338.074219 192.511719 C 337.253906 192.464844 336.433594 192.457031 335.613281 192.484375 C 334.792969 192.515625 333.972656 192.578125 333.160156 192.679688 C 332.34375 192.78125 331.535156 192.917969 330.730469 193.09375 C 329.929688 193.265625 329.136719 193.476562 328.351562 193.722656 C 327.566406 193.96875 326.796875 194.246094 326.035156 194.558594 C 325.277344 194.875 324.535156 195.222656 323.808594 195.601562 C 323.078125 195.984375 322.371094 196.394531 321.679688 196.839844 C 320.988281 197.285156 320.316406 197.757812 319.667969 198.261719 L 237.867188 263.703125 C 237.527344 263.976562 237.164062 264.210938 236.777344 264.414062 C 236.386719 264.613281 235.984375 264.777344 235.566406 264.898438 C 235.144531 265.019531 234.71875 265.097656 234.285156 265.136719 C 233.847656 265.175781 233.414062 265.167969 232.980469 265.121094 C 232.546875 265.074219 232.121094 264.984375 231.707031 264.851562 C 231.289062 264.71875 230.890625 264.546875 230.507812 264.335938 C 230.125 264.125 229.765625 263.882812 229.433594 263.601562 C 229.097656 263.320312 228.792969 263.007812 228.523438 262.667969 C 228.25 262.328125 228.011719 261.960938 227.8125 261.574219 C 227.609375 261.1875 227.449219 260.785156 227.328125 260.363281 C 227.203125 259.945312 227.125 259.519531 227.085938 259.082031 C 227.050781 258.648438 227.054688 258.214844 227.105469 257.78125 C 227.152344 257.34375 227.242188 256.921875 227.375 256.503906 C 227.503906 256.085938 227.675781 255.6875 227.886719 255.304688 C 228.097656 254.921875 228.34375 254.566406 228.625 254.230469 C 228.90625 253.898438 229.214844 253.59375 229.558594 253.320312 L 311.339844 187.894531 C 312.296875 187.125 313.289062 186.398438 314.316406 185.71875 C 315.339844 185.035156 316.394531 184.402344 317.476562 183.820312 C 318.558594 183.234375 319.667969 182.703125 320.796875 182.21875 C 321.929688 181.738281 323.082031 181.308594 324.253906 180.929688 C 325.425781 180.554688 326.609375 180.230469 327.8125 179.960938 C 329.011719 179.695312 330.222656 179.480469 331.441406 179.324219 C 332.664062 179.167969 333.886719 179.066406 335.117188 179.019531 C 336.347656 178.972656 337.578125 178.984375 338.804688 179.050781 C 340.035156 179.121094 341.257812 179.242188 342.472656 179.421875 C 343.691406 179.601562 344.898438 179.835938 346.09375 180.125 C 347.289062 180.417969 348.46875 180.761719 349.632812 181.15625 C 350.796875 181.554688 351.941406 182.007812 353.066406 182.507812 C 354.1875 183.011719 355.285156 183.566406 356.359375 184.167969 C 357.429688 184.773438 358.472656 185.421875 359.484375 186.121094 C 360.496094 186.820312 361.476562 187.5625 362.421875 188.351562 C 363.367188 189.140625 364.273438 189.972656 365.140625 190.84375 C 365.683594 191.390625 366.199219 191.960938 366.691406 192.554688 C 367.179688 193.152344 367.644531 193.769531 368.074219 194.40625 C 368.507812 195.046875 368.910156 195.703125 369.28125 196.378906 C 369.652344 197.054688 369.992188 197.746094 370.300781 198.453125 C 370.609375 199.160156 370.882812 199.882812 371.121094 200.613281 C 371.363281 201.347656 371.566406 202.089844 371.738281 202.839844 C 371.910156 203.59375 372.042969 204.351562 372.144531 205.117188 C 372.246094 205.882812 372.308594 206.648438 372.339844 207.417969 C 372.367188 208.191406 372.359375 208.960938 372.320312 209.730469 C 372.277344 210.5 372.195312 211.265625 372.082031 212.03125 C 371.96875 212.792969 371.820312 213.546875 371.636719 214.296875 C 371.449219 215.046875 371.230469 215.785156 370.976562 216.511719 C 370.726562 217.242188 370.4375 217.957031 370.117188 218.660156 C 369.796875 219.359375 369.445312 220.046875 369.0625 220.714844 C 368.679688 221.382812 368.265625 222.035156 367.820312 222.664062 C 367.378906 223.296875 366.90625 223.902344 366.402344 224.488281 L 266.929688 339.652344 C 265.53125 341.273438 264.050781 342.816406 262.488281 344.277344 C 260.921875 345.738281 259.285156 347.113281 257.574219 348.398438 C 255.859375 349.683594 254.085938 350.875 252.246094 351.972656 C 250.402344 353.066406 248.511719 354.058594 246.5625 354.949219 C 244.617188 355.839844 242.628906 356.625 240.597656 357.304688 C 238.566406 357.980469 236.503906 358.546875 234.410156 359.003906 C 232.320312 359.457031 230.210938 359.800781 228.082031 360.03125 C 225.953125 360.257812 223.816406 360.371094 221.675781 360.371094 Z M 221.675781 360.371094 " fill-opacity="1" fill-rule="nonzero"/><path fill="#ffffff" d="M 239.363281 107.710938 L 199.46875 107.710938 C 199.03125 107.710938 198.597656 107.671875 198.171875 107.585938 C 197.742188 107.5 197.328125 107.375 196.921875 107.207031 C 196.519531 107.039062 196.136719 106.835938 195.773438 106.59375 C 195.410156 106.351562 195.074219 106.074219 194.765625 105.765625 C 194.457031 105.457031 194.183594 105.121094 193.941406 104.757812 C 193.695312 104.394531 193.492188 104.011719 193.324219 103.609375 C 193.15625 103.203125 193.03125 102.789062 192.945312 102.359375 C 192.863281 101.933594 192.820312 101.5 192.820312 101.0625 C 192.820312 100.628906 192.863281 100.195312 192.945312 99.765625 C 193.03125 99.339844 193.15625 98.921875 193.324219 98.519531 C 193.492188 98.117188 193.695312 97.734375 193.941406 97.371094 C 194.183594 97.007812 194.457031 96.671875 194.765625 96.363281 C 195.074219 96.054688 195.410156 95.777344 195.773438 95.535156 C 196.136719 95.292969 196.519531 95.089844 196.921875 94.921875 C 197.328125 94.753906 197.742188 94.628906 198.171875 94.542969 C 198.597656 94.457031 199.03125 94.414062 199.46875 94.414062 L 239.363281 94.414062 C 240.015625 94.414062 240.667969 94.382812 241.316406 94.316406 C 241.964844 94.253906 242.609375 94.15625 243.25 94.027344 C 243.890625 93.898438 244.523438 93.742188 245.148438 93.550781 C 245.773438 93.359375 246.386719 93.140625 246.992188 92.890625 C 247.59375 92.640625 248.183594 92.359375 248.761719 92.054688 C 249.335938 91.746094 249.894531 91.410156 250.4375 91.046875 C 250.980469 90.683594 251.503906 90.292969 252.011719 89.878906 C 252.515625 89.464844 252.996094 89.027344 253.460938 88.566406 C 253.921875 88.105469 254.359375 87.621094 254.773438 87.117188 C 255.1875 86.613281 255.578125 86.085938 255.941406 85.542969 C 256.304688 85 256.636719 84.441406 256.945312 83.867188 C 257.253906 83.289062 257.535156 82.703125 257.785156 82.097656 C 258.035156 81.496094 258.253906 80.878906 258.445312 80.257812 C 258.632812 79.632812 258.792969 79 258.921875 78.359375 C 259.050781 77.71875 259.144531 77.074219 259.210938 76.421875 C 259.273438 75.773438 259.308594 75.121094 259.308594 74.46875 L 259.308594 41.222656 L 113.03125 41.222656 L 113.03125 74.46875 C 113.03125 75.121094 113.066406 75.773438 113.128906 76.421875 C 113.195312 77.074219 113.289062 77.71875 113.417969 78.359375 C 113.546875 79 113.707031 79.632812 113.894531 80.257812 C 114.085938 80.878906 114.304688 81.496094 114.554688 82.097656 C 114.804688 82.703125 115.085938 83.289062 115.394531 83.867188 C 115.703125 84.441406 116.039062 85 116.398438 85.542969 C 116.761719 86.085938 117.152344 86.613281 117.566406 87.117188 C 117.980469 87.621094 118.417969 88.105469 118.878906 88.566406 C 119.34375 89.027344 119.824219 89.464844 120.332031 89.878906 C 120.835938 90.292969 121.359375 90.683594 121.902344 91.046875 C 122.445312 91.410156 123.003906 91.746094 123.582031 92.054688 C 124.15625 92.359375 124.746094 92.640625 125.347656 92.890625 C 125.953125 93.140625 126.566406 93.359375 127.191406 93.550781 C 127.816406 93.742188 128.449219 93.898438 129.089844 94.027344 C 129.730469 94.15625 130.375 94.253906 131.023438 94.316406 C 131.675781 94.382812 132.324219 94.414062 132.980469 94.414062 L 172.871094 94.414062 C 173.308594 94.414062 173.742188 94.457031 174.167969 94.542969 C 174.597656 94.628906 175.011719 94.753906 175.417969 94.921875 C 175.820312 95.089844 176.203125 95.292969 176.566406 95.535156 C 176.929688 95.777344 177.265625 96.054688 177.574219 96.363281 C 177.882812 96.671875 178.15625 97.007812 178.402344 97.371094 C 178.644531 97.734375 178.847656 98.117188 179.015625 98.519531 C 179.183594 98.921875 179.308594 99.339844 179.394531 99.765625 C 179.480469 100.195312 179.519531 100.628906 179.519531 101.0625 C 179.519531 101.5 179.480469 101.933594 179.394531 102.359375 C 179.308594 102.789062 179.183594 103.203125 179.015625 103.609375 C 178.847656 104.011719 178.644531 104.394531 178.402344 104.757812 C 178.15625 105.121094 177.882812 105.457031 177.574219 105.765625 C 177.265625 106.074219 176.929688 106.351562 176.566406 106.59375 C 176.203125 106.835938 175.820312 107.039062 175.417969 107.207031 C 175.011719 107.375 174.597656 107.5 174.167969 107.585938 C 173.742188 107.671875 173.308594 107.710938 172.871094 107.710938 L 132.980469 107.710938 C 131.890625 107.710938 130.804688 107.65625 129.722656 107.550781 C 128.636719 107.441406 127.5625 107.28125 126.496094 107.066406 C 125.429688 106.855469 124.375 106.589844 123.332031 106.273438 C 122.292969 105.957031 121.269531 105.589844 120.261719 105.171875 C 119.257812 104.753906 118.273438 104.289062 117.316406 103.777344 C 116.355469 103.261719 115.421875 102.703125 114.519531 102.097656 C 113.613281 101.492188 112.742188 100.84375 111.898438 100.15625 C 111.058594 99.464844 110.253906 98.734375 109.484375 97.964844 C 108.714844 97.195312 107.984375 96.390625 107.292969 95.546875 C 106.601562 94.707031 105.953125 93.832031 105.347656 92.929688 C 104.742188 92.023438 104.183594 91.089844 103.671875 90.132812 C 103.15625 89.171875 102.691406 88.191406 102.273438 87.183594 C 101.859375 86.179688 101.492188 85.15625 101.175781 84.113281 C 100.859375 83.074219 100.59375 82.019531 100.378906 80.949219 C 100.164062 79.882812 100.003906 78.808594 99.898438 77.726562 C 99.789062 76.640625 99.734375 75.554688 99.734375 74.46875 L 99.734375 34.574219 C 99.734375 34.136719 99.777344 33.707031 99.863281 33.277344 C 99.945312 32.847656 100.074219 32.433594 100.238281 32.03125 C 100.40625 31.625 100.613281 31.242188 100.855469 30.878906 C 101.097656 30.515625 101.371094 30.183594 101.679688 29.871094 C 101.988281 29.5625 102.324219 29.289062 102.6875 29.046875 C 103.050781 28.804688 103.433594 28.597656 103.839844 28.433594 C 104.242188 28.265625 104.65625 28.136719 105.085938 28.054688 C 105.515625 27.96875 105.945312 27.925781 106.382812 27.925781 L 265.957031 27.925781 C 266.394531 27.925781 266.828125 27.96875 267.253906 28.054688 C 267.683594 28.136719 268.097656 28.265625 268.5 28.433594 C 268.90625 28.597656 269.289062 28.804688 269.652344 29.046875 C 270.015625 29.289062 270.351562 29.5625 270.660156 29.871094 C 270.96875 30.183594 271.242188 30.515625 271.484375 30.878906 C 271.726562 31.242188 271.933594 31.625 272.101562 32.03125 C 272.265625 32.433594 272.394531 32.847656 272.480469 33.277344 C 272.5625 33.707031 272.605469 34.136719 272.605469 34.574219 L 272.605469 74.46875 C 272.605469 75.554688 272.550781 76.640625 272.441406 77.726562 C 272.335938 78.808594 272.175781 79.882812 271.960938 80.949219 C 271.746094 82.019531 271.484375 83.074219 271.167969 84.113281 C 270.847656 85.15625 270.480469 86.179688 270.066406 87.183594 C 269.648438 88.191406 269.183594 89.171875 268.667969 90.132812 C 268.15625 91.089844 267.597656 92.023438 266.992188 92.929688 C 266.386719 93.832031 265.738281 94.707031 265.046875 95.546875 C 264.359375 96.390625 263.628906 97.195312 262.859375 97.964844 C 262.089844 98.734375 261.28125 99.464844 260.441406 100.15625 C 259.601562 100.84375 258.726562 101.492188 257.820312 102.097656 C 256.917969 102.703125 255.984375 103.261719 255.023438 103.777344 C 254.066406 104.289062 253.082031 104.753906 252.078125 105.171875 C 251.074219 105.589844 250.050781 105.957031 249.007812 106.273438 C 247.964844 106.589844 246.910156 106.855469 245.84375 107.066406 C 244.777344 107.28125 243.703125 107.441406 242.617188 107.550781 C 241.535156 107.65625 240.449219 107.710938 239.363281 107.710938 Z M 239.363281 107.710938 " fill-opacity="1" fill-rule="nonzero"/><path fill="#ffffff" d="M 212.765625 41.222656 L 159.574219 41.222656 C 159.136719 41.222656 158.707031 41.179688 158.277344 41.09375 C 157.847656 41.011719 157.433594 40.882812 157.03125 40.71875 C 156.625 40.550781 156.242188 40.34375 155.878906 40.101562 C 155.515625 39.859375 155.179688 39.585938 154.871094 39.277344 C 154.5625 38.96875 154.289062 38.632812 154.046875 38.269531 C 153.804688 37.90625 153.597656 37.523438 153.429688 37.117188 C 153.265625 36.714844 153.136719 36.300781 153.054688 35.871094 C 152.96875 35.445312 152.925781 35.011719 152.925781 34.574219 L 152.925781 7.980469 C 152.925781 7.542969 152.96875 7.109375 153.054688 6.679688 C 153.136719 6.253906 153.265625 5.835938 153.429688 5.433594 C 153.597656 5.03125 153.804688 4.648438 154.046875 4.285156 C 154.289062 3.921875 154.5625 3.585938 154.871094 3.277344 C 155.179688 2.96875 155.515625 2.691406 155.878906 2.449219 C 156.242188 2.207031 156.625 2.003906 157.03125 1.835938 C 157.433594 1.667969 157.847656 1.542969 158.277344 1.457031 C 158.707031 1.371094 159.136719 1.328125 159.574219 1.328125 L 212.765625 1.328125 C 213.203125 1.328125 213.636719 1.371094 214.0625 1.457031 C 214.492188 1.542969 214.90625 1.667969 215.308594 1.835938 C 215.714844 2.003906 216.097656 2.207031 216.460938 2.449219 C 216.824219 2.691406 217.160156 2.96875 217.46875 3.277344 C 217.777344 3.585938 218.050781 3.921875 218.292969 4.285156 C 218.535156 4.648438 218.742188 5.03125 218.910156 5.433594 C 219.074219 5.835938 219.203125 6.253906 219.285156 6.679688 C 219.371094 7.109375 219.414062 7.542969 219.414062 7.980469 L 219.414062 34.574219 C 219.414062 35.011719 219.371094 35.445312 219.285156 35.871094 C 219.203125 36.300781 219.074219 36.714844 218.910156 37.117188 C 218.742188 37.523438 218.535156 37.90625 218.292969 38.269531 C 218.050781 38.632812 217.777344 38.96875 217.46875 39.277344 C 217.160156 39.585938 216.824219 39.859375 216.460938 40.101562 C 216.097656 40.34375 215.714844 40.550781 215.308594 40.71875 C 214.90625 40.882812 214.492188 41.011719 214.0625 41.09375 C 213.636719 41.179688 213.203125 41.222656 212.765625 41.222656 Z M 166.222656 27.925781 L 206.117188 27.925781 L 206.117188 14.628906 L 166.222656 14.628906 Z M 166.222656 27.925781 " fill-opacity="1" fill-rule="nonzero"/><path fill="#ffffff" d="M 259.308594 174.203125 L 113.03125 174.203125 C 112.59375 174.203125 112.164062 174.160156 111.734375 174.074219 C 111.304688 173.988281 110.890625 173.863281 110.488281 173.695312 C 110.085938 173.527344 109.699219 173.324219 109.339844 173.082031 C 108.976562 172.839844 108.640625 172.5625 108.332031 172.253906 C 108.023438 171.945312 107.746094 171.609375 107.503906 171.246094 C 107.261719 170.882812 107.054688 170.5 106.890625 170.097656 C 106.722656 169.695312 106.597656 169.277344 106.511719 168.851562 C 106.425781 168.421875 106.382812 167.988281 106.382812 167.554688 L 106.382812 92.019531 C 106.382812 91.585938 106.425781 91.152344 106.511719 90.722656 C 106.597656 90.296875 106.722656 89.878906 106.890625 89.476562 C 107.054688 89.074219 107.261719 88.691406 107.503906 88.328125 C 107.746094 87.964844 108.023438 87.628906 108.332031 87.320312 C 108.640625 87.011719 108.976562 86.734375 109.339844 86.492188 C 109.699219 86.25 110.085938 86.046875 110.488281 85.878906 C 110.890625 85.710938 111.304688 85.585938 111.734375 85.5 C 112.164062 85.414062 112.59375 85.371094 113.03125 85.371094 C 113.46875 85.371094 113.902344 85.414062 114.328125 85.5 C 114.757812 85.585938 115.171875 85.710938 115.578125 85.878906 C 115.980469 86.046875 116.363281 86.25 116.726562 86.492188 C 117.089844 86.734375 117.425781 87.011719 117.734375 87.320312 C 118.042969 87.628906 118.316406 87.964844 118.558594 88.328125 C 118.804688 88.691406 119.007812 89.074219 119.175781 89.476562 C 119.339844 89.878906 119.46875 90.296875 119.554688 90.722656 C 119.636719 91.152344 119.679688 91.585938 119.679688 92.019531 L 119.679688 160.902344 L 252.660156 160.902344 L 252.660156 92.019531 C 252.660156 91.585938 252.703125 91.152344 252.789062 90.722656 C 252.871094 90.296875 253 89.878906 253.164062 89.476562 C 253.332031 89.074219 253.539062 88.691406 253.78125 88.328125 C 254.023438 87.964844 254.296875 87.628906 254.605469 87.320312 C 254.914062 87.011719 255.25 86.734375 255.613281 86.492188 C 255.976562 86.25 256.359375 86.046875 256.765625 85.878906 C 257.167969 85.710938 257.582031 85.585938 258.011719 85.5 C 258.441406 85.414062 258.871094 85.371094 259.308594 85.371094 C 259.746094 85.371094 260.175781 85.414062 260.605469 85.5 C 261.035156 85.585938 261.449219 85.710938 261.851562 85.878906 C 262.257812 86.046875 262.640625 86.25 263.003906 86.492188 C 263.367188 86.734375 263.703125 87.011719 264.011719 87.320312 C 264.320312 87.628906 264.59375 87.964844 264.835938 88.328125 C 265.078125 88.691406 265.285156 89.074219 265.453125 89.476562 C 265.617188 89.878906 265.746094 90.296875 265.828125 90.722656 C 265.914062 91.152344 265.957031 91.585938 265.957031 92.019531 L 265.957031 167.554688 C 265.957031 167.988281 265.914062 168.421875 265.828125 168.851562 C 265.746094 169.277344 265.617188 169.695312 265.453125 170.097656 C 265.285156 170.5 265.078125 170.882812 264.835938 171.246094 C 264.59375 171.609375 264.320312 171.945312 264.011719 172.253906 C 263.703125 172.5625 263.367188 172.839844 263.003906 173.082031 C 262.640625 173.324219 262.257812 173.527344 261.851562 173.695312 C 261.449219 173.863281 261.035156 173.988281 260.605469 174.074219 C 260.175781 174.160156 259.746094 174.203125 259.308594 174.203125 Z M 259.308594 174.203125 " fill-opacity="1" fill-rule="nonzero"/><path fill="#ffffff" d="M 199.46875 121.011719 L 172.871094 121.011719 C 172.4375 121.011719 172.003906 120.96875 171.574219 120.882812 C 171.148438 120.796875 170.730469 120.671875 170.328125 120.503906 C 169.925781 120.335938 169.542969 120.132812 169.179688 119.890625 C 168.816406 119.648438 168.480469 119.371094 168.171875 119.0625 C 167.863281 118.753906 167.585938 118.417969 167.34375 118.054688 C 167.101562 117.691406 166.898438 117.308594 166.730469 116.90625 C 166.5625 116.503906 166.4375 116.085938 166.351562 115.660156 C 166.265625 115.230469 166.222656 114.796875 166.222656 114.363281 L 166.222656 87.765625 C 166.222656 87.328125 166.265625 86.898438 166.351562 86.46875 C 166.4375 86.039062 166.5625 85.625 166.730469 85.222656 C 166.898438 84.816406 167.101562 84.433594 167.34375 84.070312 C 167.585938 83.710938 167.863281 83.375 168.171875 83.0625 C 168.480469 82.753906 168.816406 82.480469 169.179688 82.238281 C 169.542969 81.996094 169.925781 81.789062 170.328125 81.625 C 170.730469 81.457031 171.148438 81.328125 171.574219 81.246094 C 172.003906 81.160156 172.4375 81.117188 172.871094 81.117188 L 199.46875 81.117188 C 199.90625 81.117188 200.335938 81.160156 200.765625 81.246094 C 201.195312 81.328125 201.609375 81.457031 202.011719 81.625 C 202.414062 81.789062 202.800781 81.996094 203.160156 82.238281 C 203.523438 82.480469 203.859375 82.753906 204.167969 83.0625 C 204.476562 83.375 204.753906 83.710938 204.996094 84.070312 C 205.238281 84.433594 205.445312 84.816406 205.609375 85.222656 C 205.777344 85.625 205.902344 86.039062 205.988281 86.46875 C 206.074219 86.898438 206.117188 87.328125 206.117188 87.765625 L 206.117188 114.363281 C 206.117188 114.796875 206.074219 115.230469 205.988281 115.660156 C 205.902344 116.085938 205.777344 116.503906 205.609375 116.90625 C 205.445312 117.308594 205.238281 117.691406 204.996094 118.054688 C 204.753906 118.417969 204.476562 118.753906 204.167969 119.0625 C 203.859375 119.371094 203.523438 119.648438 203.160156 119.890625 C 202.800781 120.132812 202.414062 120.335938 202.011719 120.503906 C 201.609375 120.671875 201.195312 120.796875 200.765625 120.882812 C 200.335938 120.96875 199.90625 121.011719 199.46875 121.011719 Z M 179.519531 107.710938 L 192.820312 107.710938 L 192.820312 94.414062 L 179.519531 94.414062 Z M 179.519531 107.710938 " fill-opacity="1" fill-rule="nonzero"/></svg>