<svg xmlns="http://www.w3.org/2000/svg" xmlns:xlink="http://www.w3.org/1999/xlink" width="500" zoomAndPan="magnify" viewBox="0 0 375 374.999991" height="500" preserveAspectRatio="xMidYMid meet" version="1.0"><defs><clipPath id="a72af712c3"><path d="M 26.164062 220 L 84 220 L 84 347 L 26.164062 347 Z M 26.164062 220 " clip-rule="nonzero"/></clipPath></defs><g clip-path="url(#a72af712c3)"><path fill="#ffffff" d="M 77.386719 346.023438 L 31.855469 346.023438 C 31.480469 346.023438 31.109375 345.988281 30.742188 345.914062 C 30.378906 345.84375 30.023438 345.734375 29.675781 345.589844 C 29.332031 345.449219 29.003906 345.273438 28.691406 345.066406 C 28.382812 344.859375 28.09375 344.621094 27.828125 344.359375 C 27.566406 344.09375 27.328125 343.804688 27.121094 343.496094 C 26.914062 343.183594 26.738281 342.855469 26.597656 342.511719 C 26.453125 342.164062 26.34375 341.808594 26.273438 341.441406 C 26.199219 341.078125 26.164062 340.707031 26.164062 340.332031 L 26.164062 226.503906 C 26.164062 226.128906 26.199219 225.757812 26.273438 225.394531 C 26.34375 225.027344 26.453125 224.671875 26.597656 224.324219 C 26.738281 223.980469 26.914062 223.652344 27.121094 223.339844 C 27.328125 223.03125 27.566406 222.742188 27.828125 222.480469 C 28.09375 222.214844 28.382812 221.980469 28.691406 221.769531 C 29.003906 221.5625 29.332031 221.386719 29.675781 221.246094 C 30.023438 221.101562 30.378906 220.992188 30.742188 220.921875 C 31.109375 220.847656 31.480469 220.8125 31.855469 220.8125 L 77.386719 220.8125 C 77.761719 220.8125 78.128906 220.847656 78.496094 220.921875 C 78.863281 220.992188 79.21875 221.101562 79.5625 221.246094 C 79.910156 221.386719 80.238281 221.5625 80.546875 221.769531 C 80.859375 221.976562 81.144531 222.214844 81.410156 222.480469 C 81.675781 222.742188 81.910156 223.03125 82.117188 223.339844 C 82.324219 223.652344 82.5 223.980469 82.644531 224.324219 C 82.789062 224.671875 82.894531 225.027344 82.96875 225.394531 C 83.042969 225.757812 83.078125 226.128906 83.078125 226.503906 L 83.078125 340.332031 C 83.078125 340.707031 83.042969 341.078125 82.96875 341.441406 C 82.894531 341.808594 82.789062 342.164062 82.644531 342.511719 C 82.5 342.855469 82.324219 343.183594 82.117188 343.496094 C 81.910156 343.804688 81.675781 344.09375 81.410156 344.359375 C 81.144531 344.621094 80.859375 344.859375 80.546875 345.066406 C 80.238281 345.273438 79.910156 345.449219 79.5625 345.589844 C 79.21875 345.734375 78.863281 345.84375 78.496094 345.914062 C 78.128906 345.988281 77.761719 346.023438 77.386719 346.023438 Z M 37.546875 334.640625 L 71.695312 334.640625 L 71.695312 232.195312 L 37.546875 232.195312 Z M 37.546875 334.640625 " fill-opacity="1" fill-rule="nonzero"/></g><path fill="#ffffff" d="M 225.363281 289.109375 L 157.066406 289.109375 C 156.691406 289.109375 156.324219 289.074219 155.957031 289 C 155.589844 288.925781 155.234375 288.820312 154.890625 288.675781 C 154.542969 288.535156 154.214844 288.359375 153.90625 288.148438 C 153.59375 287.941406 153.308594 287.707031 153.042969 287.441406 C 152.777344 287.179688 152.542969 286.890625 152.335938 286.578125 C 152.128906 286.269531 151.953125 285.941406 151.808594 285.597656 C 151.664062 285.25 151.558594 284.894531 151.484375 284.527344 C 151.410156 284.160156 151.375 283.792969 151.375 283.417969 C 151.375 283.042969 151.410156 282.675781 151.484375 282.308594 C 151.558594 281.941406 151.664062 281.585938 151.808594 281.238281 C 151.953125 280.894531 152.128906 280.566406 152.335938 280.257812 C 152.542969 279.945312 152.777344 279.65625 153.042969 279.394531 C 153.308594 279.128906 153.59375 278.894531 153.90625 278.6875 C 154.214844 278.476562 154.542969 278.304688 154.890625 278.160156 C 155.234375 278.015625 155.589844 277.910156 155.957031 277.835938 C 156.324219 277.761719 156.691406 277.726562 157.066406 277.726562 L 225.363281 277.726562 C 225.738281 277.726562 226.109375 277.691406 226.476562 277.617188 C 226.839844 277.542969 227.195312 277.433594 227.542969 277.292969 C 227.886719 277.148438 228.214844 276.972656 228.527344 276.765625 C 228.835938 276.558594 229.125 276.324219 229.386719 276.058594 C 229.652344 275.792969 229.886719 275.507812 230.09375 275.195312 C 230.304688 274.886719 230.480469 274.558594 230.621094 274.210938 C 230.765625 273.867188 230.875 273.511719 230.945312 273.144531 C 231.019531 272.777344 231.054688 272.410156 231.054688 272.035156 C 231.054688 271.101562 231.007812 270.175781 230.917969 269.246094 C 230.824219 268.320312 230.6875 267.398438 230.503906 266.484375 C 230.320312 265.570312 230.09375 264.667969 229.824219 263.777344 C 229.550781 262.886719 229.238281 262.011719 228.882812 261.148438 C 228.523438 260.289062 228.125 259.449219 227.6875 258.628906 C 227.246094 257.804688 226.769531 257.007812 226.25 256.234375 C 225.730469 255.457031 225.175781 254.710938 224.585938 253.992188 C 223.996094 253.269531 223.371094 252.582031 222.710938 251.921875 C 222.054688 251.261719 221.363281 250.636719 220.644531 250.046875 C 219.921875 249.457031 219.175781 248.902344 218.402344 248.382812 C 217.625 247.867188 216.828125 247.386719 216.007812 246.949219 C 215.183594 246.507812 214.34375 246.109375 213.484375 245.753906 C 212.625 245.394531 211.746094 245.082031 210.855469 244.8125 C 209.964844 244.539062 209.0625 244.3125 208.148438 244.128906 C 207.234375 243.949219 206.3125 243.808594 205.386719 243.71875 C 204.460938 243.625 203.53125 243.578125 202.597656 243.578125 L 168.449219 243.578125 C 167.300781 243.578125 166.25 243.257812 165.292969 242.621094 C 158.820312 239.03125 151.988281 236.351562 144.800781 234.582031 C 137.613281 232.816406 130.320312 232.019531 122.917969 232.195312 C 115.515625 231.992188 108.21875 232.773438 101.027344 234.542969 C 93.835938 236.3125 87.007812 239.007812 80.542969 242.621094 C 80.230469 242.824219 79.90625 242.996094 79.558594 243.136719 C 79.214844 243.273438 78.859375 243.378906 78.496094 243.449219 C 78.132812 243.519531 77.761719 243.550781 77.390625 243.546875 C 77.019531 243.546875 76.652344 243.507812 76.289062 243.433594 C 75.925781 243.359375 75.570312 243.25 75.226562 243.105469 C 74.886719 242.960938 74.558594 242.785156 74.25 242.578125 C 73.945312 242.371094 73.660156 242.136719 73.394531 241.875 C 73.132812 241.609375 72.898438 241.324219 72.695312 241.015625 C 72.488281 240.707031 72.3125 240.378906 72.171875 240.035156 C 72.027344 239.691406 71.921875 239.339844 71.847656 238.976562 C 71.777344 238.609375 71.738281 238.242188 71.738281 237.871094 C 71.738281 237.5 71.773438 237.132812 71.84375 236.765625 C 71.914062 236.402344 72.019531 236.046875 72.160156 235.703125 C 72.300781 235.359375 72.472656 235.03125 72.679688 234.722656 C 72.882812 234.414062 73.117188 234.125 73.378906 233.859375 C 73.636719 233.597656 73.921875 233.359375 74.230469 233.152344 C 77.910156 231.035156 81.714844 229.179688 85.648438 227.582031 C 89.585938 225.988281 93.609375 224.671875 97.722656 223.628906 C 101.839844 222.585938 106.003906 221.828125 110.222656 221.355469 C 114.441406 220.882812 118.675781 220.703125 122.917969 220.8125 C 131.128906 220.667969 139.226562 221.558594 147.207031 223.488281 C 155.191406 225.414062 162.800781 228.316406 170.039062 232.195312 L 202.597656 232.195312 C 203.902344 232.195312 205.203125 232.261719 206.503906 232.390625 C 207.800781 232.519531 209.089844 232.710938 210.367188 232.96875 C 211.648438 233.222656 212.910156 233.539062 214.160156 233.921875 C 215.40625 234.300781 216.632812 234.738281 217.839844 235.238281 C 219.042969 235.738281 220.21875 236.296875 221.371094 236.914062 C 222.519531 237.527344 223.636719 238.199219 224.722656 238.921875 C 225.804688 239.648438 226.851562 240.425781 227.859375 241.253906 C 228.871094 242.078125 229.835938 242.953125 230.757812 243.878906 C 231.679688 244.800781 232.554688 245.765625 233.382812 246.773438 C 234.210938 247.78125 234.984375 248.828125 235.710938 249.910156 C 236.4375 250.996094 237.105469 252.113281 237.722656 253.261719 C 238.335938 254.414062 238.894531 255.589844 239.394531 256.796875 C 239.894531 258 240.332031 259.226562 240.714844 260.476562 C 241.09375 261.722656 241.410156 262.988281 241.667969 264.265625 C 241.921875 265.546875 242.113281 266.832031 242.242188 268.132812 C 242.371094 269.429688 242.4375 270.730469 242.4375 272.035156 C 242.4375 272.59375 242.410156 273.152344 242.355469 273.707031 C 242.300781 274.265625 242.21875 274.816406 242.109375 275.363281 C 242 275.914062 241.863281 276.453125 241.699219 276.988281 C 241.539062 277.523438 241.347656 278.050781 241.132812 278.566406 C 240.921875 279.082031 240.679688 279.585938 240.417969 280.082031 C 240.152344 280.574219 239.867188 281.050781 239.554688 281.515625 C 239.246094 281.980469 238.914062 282.429688 238.558594 282.863281 C 238.203125 283.292969 237.828125 283.707031 237.433594 284.101562 C 237.039062 284.5 236.625 284.875 236.191406 285.226562 C 235.757812 285.582031 235.3125 285.914062 234.847656 286.226562 C 234.382812 286.535156 233.902344 286.824219 233.410156 287.085938 C 232.917969 287.351562 232.414062 287.589844 231.894531 287.804688 C 231.378906 288.019531 230.855469 288.207031 230.320312 288.371094 C 229.785156 288.53125 229.242188 288.667969 228.695312 288.777344 C 228.144531 288.886719 227.59375 288.96875 227.039062 289.027344 C 226.480469 289.082031 225.925781 289.109375 225.363281 289.109375 Z M 225.363281 289.109375 " fill-opacity="1" fill-rule="nonzero"/><path fill="#ffffff" d="M 215.917969 334.640625 L 77.386719 334.640625 C 77.011719 334.640625 76.640625 334.605469 76.277344 334.53125 C 75.910156 334.460938 75.554688 334.351562 75.207031 334.207031 C 74.863281 334.066406 74.535156 333.890625 74.222656 333.683594 C 73.914062 333.476562 73.625 333.238281 73.363281 332.972656 C 73.097656 332.710938 72.863281 332.421875 72.652344 332.113281 C 72.445312 331.800781 72.269531 331.472656 72.128906 331.128906 C 71.984375 330.78125 71.878906 330.425781 71.804688 330.058594 C 71.730469 329.695312 71.695312 329.324219 71.695312 328.949219 C 71.695312 328.578125 71.730469 328.207031 71.804688 327.839844 C 71.878906 327.472656 71.984375 327.117188 72.128906 326.773438 C 72.269531 326.425781 72.445312 326.097656 72.652344 325.789062 C 72.863281 325.476562 73.097656 325.191406 73.363281 324.925781 C 73.625 324.660156 73.914062 324.425781 74.222656 324.21875 C 74.535156 324.011719 74.863281 323.835938 75.207031 323.691406 C 75.554688 323.546875 75.910156 323.441406 76.277344 323.367188 C 76.640625 323.296875 77.011719 323.257812 77.386719 323.257812 L 215.917969 323.257812 C 218.777344 323.257812 221.601562 322.957031 224.394531 322.347656 C 227.1875 321.738281 229.882812 320.839844 232.484375 319.648438 C 235.082031 318.457031 237.527344 317.003906 239.8125 315.289062 C 242.097656 313.570312 244.175781 311.632812 246.042969 309.464844 L 331.1875 210.890625 C 331.589844 210.425781 331.945312 209.929688 332.253906 209.402344 C 332.5625 208.871094 332.820312 208.316406 333.023438 207.738281 C 333.230469 207.160156 333.375 206.566406 333.46875 205.960938 C 333.558594 205.355469 333.59375 204.742188 333.570312 204.132812 C 333.546875 203.519531 333.464844 202.914062 333.328125 202.316406 C 333.191406 201.71875 332.996094 201.136719 332.75 200.578125 C 332.5 200.015625 332.203125 199.484375 331.855469 198.976562 C 331.503906 198.472656 331.113281 198.003906 330.675781 197.574219 C 329.664062 196.59375 328.574219 195.710938 327.402344 194.925781 C 326.234375 194.136719 325.003906 193.460938 323.714844 192.898438 C 322.421875 192.332031 321.09375 191.886719 319.722656 191.558594 C 318.351562 191.230469 316.960938 191.03125 315.554688 190.953125 C 314.148438 190.875 312.746094 190.921875 311.347656 191.097656 C 309.949219 191.269531 308.578125 191.570312 307.230469 191.988281 C 305.886719 192.410156 304.589844 192.945312 303.339844 193.597656 C 302.09375 194.25 300.910156 195.011719 299.800781 195.875 L 229.777344 251.890625 C 229.484375 252.125 229.175781 252.328125 228.84375 252.5 C 228.511719 252.671875 228.164062 252.8125 227.808594 252.914062 C 227.449219 253.019531 227.082031 253.085938 226.710938 253.121094 C 226.335938 253.152344 225.964844 253.148438 225.59375 253.105469 C 225.222656 253.066406 224.859375 252.988281 224.503906 252.875 C 224.144531 252.761719 223.804688 252.617188 223.476562 252.4375 C 223.148438 252.253906 222.84375 252.046875 222.554688 251.804688 C 222.269531 251.5625 222.011719 251.296875 221.777344 251.007812 C 221.542969 250.714844 221.339844 250.402344 221.167969 250.070312 C 220.996094 249.738281 220.859375 249.394531 220.753906 249.035156 C 220.648438 248.675781 220.582031 248.308594 220.550781 247.9375 C 220.519531 247.566406 220.523438 247.191406 220.5625 246.820312 C 220.605469 246.449219 220.679688 246.085938 220.792969 245.730469 C 220.90625 245.375 221.054688 245.03125 221.234375 244.703125 C 221.414062 244.378906 221.625 244.070312 221.863281 243.785156 C 222.105469 243.5 222.371094 243.238281 222.664062 243.003906 L 292.667969 187 C 293.488281 186.339844 294.339844 185.71875 295.214844 185.136719 C 296.09375 184.554688 296.996094 184.011719 297.921875 183.511719 C 298.851562 183.011719 299.796875 182.554688 300.765625 182.144531 C 301.734375 181.730469 302.722656 181.363281 303.722656 181.039062 C 304.726562 180.714844 305.742188 180.441406 306.769531 180.210938 C 307.796875 179.980469 308.832031 179.796875 309.878906 179.664062 C 310.921875 179.527344 311.972656 179.441406 313.023438 179.402344 C 314.078125 179.363281 315.128906 179.375 316.179688 179.433594 C 317.230469 179.488281 318.277344 179.59375 319.320312 179.75 C 320.363281 179.902344 321.394531 180.101562 322.417969 180.351562 C 323.441406 180.597656 324.453125 180.894531 325.449219 181.234375 C 326.445312 181.574219 327.425781 181.960938 328.386719 182.390625 C 329.347656 182.820312 330.285156 183.292969 331.203125 183.8125 C 332.121094 184.328125 333.015625 184.882812 333.882812 185.484375 C 334.75 186.082031 335.585938 186.71875 336.394531 187.390625 C 337.203125 188.066406 337.980469 188.777344 338.722656 189.523438 C 339.1875 189.992188 339.632812 190.480469 340.050781 190.992188 C 340.46875 191.5 340.863281 192.027344 341.234375 192.574219 C 341.605469 193.121094 341.949219 193.683594 342.269531 194.261719 C 342.585938 194.839844 342.878906 195.433594 343.140625 196.039062 C 343.402344 196.644531 343.636719 197.261719 343.84375 197.886719 C 344.046875 198.515625 344.222656 199.152344 344.371094 199.796875 C 344.515625 200.4375 344.632812 201.089844 344.71875 201.742188 C 344.804688 202.398438 344.859375 203.054688 344.886719 203.714844 C 344.910156 204.375 344.902344 205.03125 344.867188 205.691406 C 344.832031 206.351562 344.761719 207.007812 344.664062 207.660156 C 344.566406 208.3125 344.441406 208.960938 344.28125 209.601562 C 344.125 210.242188 343.9375 210.875 343.71875 211.5 C 343.503906 212.121094 343.257812 212.734375 342.984375 213.335938 C 342.710938 213.933594 342.410156 214.523438 342.082031 215.09375 C 341.753906 215.667969 341.398438 216.222656 341.019531 216.761719 C 340.636719 217.304688 340.234375 217.824219 339.804688 218.328125 L 254.65625 316.90625 C 252.253906 319.6875 249.585938 322.183594 246.644531 324.394531 C 243.707031 326.601562 240.5625 328.46875 237.222656 330 C 233.878906 331.53125 230.410156 332.6875 226.820312 333.46875 C 223.226562 334.253906 219.59375 334.644531 215.917969 334.640625 Z M 215.917969 334.640625 " fill-opacity="1" fill-rule="nonzero"/><path fill="#ffffff" d="M 231.054688 118.363281 L 196.90625 118.363281 C 196.535156 118.363281 196.164062 118.328125 195.796875 118.253906 C 195.429688 118.183594 195.074219 118.074219 194.730469 117.933594 C 194.382812 117.789062 194.054688 117.613281 193.746094 117.40625 C 193.433594 117.199219 193.148438 116.960938 192.882812 116.699219 C 192.617188 116.433594 192.382812 116.144531 192.175781 115.835938 C 191.96875 115.523438 191.792969 115.195312 191.648438 114.851562 C 191.507812 114.507812 191.398438 114.148438 191.324219 113.785156 C 191.253906 113.417969 191.214844 113.046875 191.214844 112.671875 C 191.214844 112.300781 191.253906 111.929688 191.324219 111.5625 C 191.398438 111.195312 191.507812 110.839844 191.648438 110.496094 C 191.792969 110.148438 191.96875 109.820312 192.175781 109.511719 C 192.382812 109.199219 192.617188 108.914062 192.882812 108.648438 C 193.148438 108.382812 193.433594 108.148438 193.746094 107.941406 C 194.054688 107.734375 194.382812 107.558594 194.730469 107.414062 C 195.074219 107.273438 195.429688 107.164062 195.796875 107.089844 C 196.164062 107.019531 196.535156 106.980469 196.90625 106.980469 L 231.054688 106.980469 C 231.617188 106.980469 232.171875 106.953125 232.730469 106.898438 C 233.285156 106.84375 233.839844 106.761719 234.386719 106.652344 C 234.933594 106.542969 235.476562 106.40625 236.011719 106.242188 C 236.546875 106.078125 237.070312 105.890625 237.585938 105.675781 C 238.105469 105.464844 238.609375 105.222656 239.101562 104.960938 C 239.59375 104.695312 240.074219 104.410156 240.539062 104.097656 C 241.003906 103.789062 241.449219 103.457031 241.882812 103.101562 C 242.316406 102.746094 242.730469 102.371094 243.125 101.976562 C 243.519531 101.582031 243.894531 101.167969 244.25 100.734375 C 244.605469 100.300781 244.9375 99.855469 245.246094 99.390625 C 245.558594 98.925781 245.84375 98.445312 246.109375 97.953125 C 246.371094 97.460938 246.613281 96.953125 246.824219 96.4375 C 247.039062 95.921875 247.230469 95.398438 247.390625 94.863281 C 247.554688 94.328125 247.691406 93.785156 247.800781 93.238281 C 247.910156 92.6875 247.992188 92.136719 248.046875 91.582031 C 248.101562 91.023438 248.128906 90.464844 248.132812 89.90625 L 248.132812 61.449219 L 122.917969 61.449219 L 122.917969 89.90625 C 122.917969 90.464844 122.945312 91.023438 123.003906 91.582031 C 123.058594 92.136719 123.140625 92.6875 123.25 93.238281 C 123.359375 93.785156 123.496094 94.328125 123.65625 94.863281 C 123.820312 95.398438 124.007812 95.921875 124.222656 96.4375 C 124.4375 96.953125 124.675781 97.460938 124.941406 97.953125 C 125.203125 98.445312 125.492188 98.925781 125.800781 99.390625 C 126.113281 99.855469 126.445312 100.300781 126.800781 100.734375 C 127.152344 101.167969 127.527344 101.582031 127.925781 101.976562 C 128.320312 102.371094 128.734375 102.746094 129.164062 103.101562 C 129.597656 103.457031 130.046875 103.789062 130.511719 104.097656 C 130.976562 104.410156 131.453125 104.695312 131.949219 104.960938 C 132.441406 105.222656 132.945312 105.464844 133.460938 105.675781 C 133.976562 105.890625 134.503906 106.078125 135.039062 106.242188 C 135.574219 106.40625 136.113281 106.542969 136.664062 106.652344 C 137.210938 106.761719 137.761719 106.84375 138.320312 106.898438 C 138.875 106.953125 139.433594 106.980469 139.992188 106.980469 L 174.140625 106.980469 C 174.515625 106.980469 174.886719 107.019531 175.25 107.089844 C 175.617188 107.164062 175.972656 107.273438 176.320312 107.414062 C 176.664062 107.558594 176.992188 107.734375 177.304688 107.941406 C 177.613281 108.148438 177.902344 108.382812 178.164062 108.648438 C 178.429688 108.914062 178.667969 109.199219 178.875 109.511719 C 179.082031 109.820312 179.257812 110.148438 179.398438 110.496094 C 179.542969 110.839844 179.652344 111.195312 179.722656 111.5625 C 179.796875 111.929688 179.832031 112.300781 179.832031 112.671875 C 179.832031 113.046875 179.796875 113.417969 179.722656 113.785156 C 179.652344 114.148438 179.542969 114.507812 179.398438 114.851562 C 179.257812 115.195312 179.082031 115.523438 178.875 115.835938 C 178.667969 116.144531 178.429688 116.433594 178.164062 116.699219 C 177.902344 116.960938 177.613281 117.199219 177.304688 117.40625 C 176.992188 117.613281 176.664062 117.789062 176.320312 117.933594 C 175.972656 118.074219 175.617188 118.183594 175.25 118.253906 C 174.886719 118.328125 174.515625 118.363281 174.140625 118.363281 L 139.992188 118.363281 C 139.0625 118.363281 138.132812 118.316406 137.203125 118.226562 C 136.277344 118.132812 135.355469 117.996094 134.441406 117.8125 C 133.53125 117.628906 132.625 117.402344 131.734375 117.132812 C 130.84375 116.859375 129.96875 116.546875 129.109375 116.191406 C 128.246094 115.832031 127.40625 115.433594 126.585938 114.996094 C 125.761719 114.554688 124.964844 114.078125 124.191406 113.558594 C 123.414062 113.039062 122.667969 112.484375 121.949219 111.894531 C 121.226562 111.304688 120.539062 110.679688 119.878906 110.019531 C 119.222656 109.359375 118.597656 108.671875 118.003906 107.953125 C 117.414062 107.230469 116.859375 106.484375 116.339844 105.710938 C 115.824219 104.933594 115.34375 104.136719 114.90625 103.316406 C 114.464844 102.492188 114.066406 101.652344 113.710938 100.792969 C 113.351562 99.933594 113.039062 99.054688 112.769531 98.164062 C 112.496094 97.273438 112.269531 96.371094 112.085938 95.457031 C 111.90625 94.542969 111.765625 93.621094 111.675781 92.695312 C 111.582031 91.769531 111.535156 90.839844 111.535156 89.90625 L 111.535156 55.757812 C 111.535156 55.386719 111.570312 55.015625 111.644531 54.648438 C 111.71875 54.28125 111.824219 53.925781 111.96875 53.582031 C 112.113281 53.234375 112.285156 52.90625 112.496094 52.597656 C 112.703125 52.285156 112.9375 52 113.203125 51.734375 C 113.464844 51.46875 113.753906 51.234375 114.066406 51.027344 C 114.375 50.820312 114.703125 50.644531 115.046875 50.5 C 115.394531 50.355469 115.75 50.25 116.117188 50.175781 C 116.484375 50.101562 116.851562 50.066406 117.226562 50.066406 L 253.824219 50.066406 C 254.195312 50.066406 254.566406 50.101562 254.933594 50.175781 C 255.300781 50.25 255.65625 50.355469 256 50.5 C 256.34375 50.644531 256.671875 50.820312 256.984375 51.027344 C 257.296875 51.234375 257.582031 51.46875 257.847656 51.734375 C 258.109375 52 258.347656 52.285156 258.554688 52.597656 C 258.761719 52.90625 258.9375 53.234375 259.082031 53.582031 C 259.222656 53.925781 259.332031 54.28125 259.40625 54.648438 C 259.476562 55.015625 259.515625 55.386719 259.515625 55.757812 L 259.515625 89.90625 C 259.511719 90.839844 259.464844 91.769531 259.375 92.695312 C 259.28125 93.621094 259.144531 94.542969 258.960938 95.457031 C 258.777344 96.371094 258.550781 97.273438 258.28125 98.164062 C 258.011719 99.054688 257.695312 99.933594 257.339844 100.792969 C 256.980469 101.652344 256.582031 102.492188 256.144531 103.316406 C 255.703125 104.136719 255.226562 104.933594 254.707031 105.710938 C 254.191406 106.484375 253.636719 107.230469 253.042969 107.953125 C 252.453125 108.671875 251.828125 109.359375 251.167969 110.019531 C 250.511719 110.679688 249.820312 111.304688 249.101562 111.894531 C 248.378906 112.484375 247.632812 113.039062 246.859375 113.558594 C 246.085938 114.078125 245.285156 114.554688 244.464844 114.996094 C 243.644531 115.433594 242.800781 115.832031 241.941406 116.191406 C 241.082031 116.546875 240.203125 116.859375 239.3125 117.132812 C 238.421875 117.402344 237.519531 117.628906 236.605469 117.8125 C 235.691406 117.996094 234.773438 118.132812 233.84375 118.226562 C 232.917969 118.316406 231.988281 118.363281 231.054688 118.363281 Z M 231.054688 118.363281 " fill-opacity="1" fill-rule="nonzero"/><path fill="#ffffff" d="M 208.289062 61.449219 L 162.757812 61.449219 C 162.386719 61.449219 162.015625 61.414062 161.648438 61.339844 C 161.28125 61.269531 160.925781 61.160156 160.582031 61.015625 C 160.234375 60.875 159.90625 60.699219 159.597656 60.492188 C 159.285156 60.285156 159 60.046875 158.734375 59.78125 C 158.46875 59.519531 158.234375 59.230469 158.027344 58.921875 C 157.820312 58.609375 157.644531 58.28125 157.5 57.9375 C 157.355469 57.589844 157.25 57.234375 157.175781 56.867188 C 157.101562 56.503906 157.066406 56.132812 157.066406 55.757812 L 157.066406 32.992188 C 157.066406 32.617188 157.101562 32.25 157.175781 31.882812 C 157.25 31.515625 157.355469 31.160156 157.5 30.816406 C 157.644531 30.46875 157.820312 30.140625 158.027344 29.832031 C 158.234375 29.519531 158.46875 29.230469 158.734375 28.96875 C 159 28.703125 159.285156 28.46875 159.597656 28.261719 C 159.90625 28.050781 160.234375 27.878906 160.582031 27.734375 C 160.925781 27.589844 161.28125 27.484375 161.648438 27.410156 C 162.015625 27.335938 162.386719 27.300781 162.757812 27.300781 L 208.289062 27.300781 C 208.664062 27.300781 209.035156 27.335938 209.402344 27.410156 C 209.765625 27.484375 210.125 27.589844 210.46875 27.734375 C 210.8125 27.878906 211.140625 28.050781 211.453125 28.261719 C 211.761719 28.46875 212.050781 28.703125 212.316406 28.96875 C 212.578125 29.230469 212.816406 29.519531 213.023438 29.832031 C 213.230469 30.140625 213.40625 30.46875 213.546875 30.816406 C 213.691406 31.160156 213.800781 31.515625 213.871094 31.882812 C 213.945312 32.25 213.980469 32.617188 213.980469 32.992188 L 213.980469 55.757812 C 213.980469 56.132812 213.945312 56.503906 213.871094 56.867188 C 213.800781 57.234375 213.691406 57.589844 213.546875 57.9375 C 213.40625 58.28125 213.230469 58.609375 213.023438 58.921875 C 212.816406 59.230469 212.578125 59.519531 212.316406 59.78125 C 212.050781 60.046875 211.761719 60.285156 211.453125 60.492188 C 211.140625 60.699219 210.8125 60.875 210.46875 61.015625 C 210.125 61.160156 209.765625 61.269531 209.402344 61.339844 C 209.035156 61.414062 208.664062 61.449219 208.289062 61.449219 Z M 168.449219 50.066406 L 202.597656 50.066406 L 202.597656 38.683594 L 168.449219 38.683594 Z M 168.449219 50.066406 " fill-opacity="1" fill-rule="nonzero"/><path fill="#ffffff" d="M 248.132812 175.28125 L 122.917969 175.28125 C 122.542969 175.28125 122.175781 175.242188 121.808594 175.171875 C 121.441406 175.097656 121.085938 174.988281 120.738281 174.847656 C 120.394531 174.703125 120.066406 174.527344 119.757812 174.320312 C 119.445312 174.113281 119.15625 173.878906 118.894531 173.613281 C 118.628906 173.347656 118.394531 173.0625 118.1875 172.75 C 117.976562 172.441406 117.804688 172.113281 117.660156 171.765625 C 117.515625 171.421875 117.410156 171.066406 117.335938 170.699219 C 117.261719 170.332031 117.226562 169.960938 117.226562 169.589844 L 117.226562 104.933594 C 117.226562 104.558594 117.261719 104.1875 117.335938 103.824219 C 117.410156 103.457031 117.515625 103.101562 117.660156 102.753906 C 117.804688 102.410156 117.976562 102.082031 118.1875 101.769531 C 118.394531 101.460938 118.628906 101.171875 118.894531 100.910156 C 119.15625 100.644531 119.445312 100.410156 119.757812 100.199219 C 120.066406 99.992188 120.394531 99.816406 120.738281 99.675781 C 121.085938 99.53125 121.441406 99.421875 121.808594 99.351562 C 122.175781 99.277344 122.542969 99.242188 122.917969 99.242188 C 123.292969 99.242188 123.660156 99.277344 124.027344 99.351562 C 124.394531 99.421875 124.75 99.53125 125.097656 99.675781 C 125.441406 99.816406 125.769531 99.992188 126.082031 100.199219 C 126.390625 100.410156 126.679688 100.644531 126.941406 100.910156 C 127.207031 101.171875 127.441406 101.460938 127.652344 101.769531 C 127.859375 102.082031 128.035156 102.410156 128.175781 102.753906 C 128.320312 103.101562 128.425781 103.457031 128.5 103.824219 C 128.574219 104.1875 128.609375 104.558594 128.609375 104.933594 L 128.609375 163.898438 L 242.4375 163.898438 L 242.4375 104.933594 C 242.4375 104.558594 242.476562 104.1875 242.546875 103.824219 C 242.621094 103.457031 242.730469 103.101562 242.871094 102.753906 C 243.015625 102.410156 243.191406 102.082031 243.398438 101.769531 C 243.605469 101.460938 243.84375 101.171875 244.105469 100.910156 C 244.371094 100.644531 244.65625 100.410156 244.96875 100.199219 C 245.28125 99.992188 245.609375 99.816406 245.953125 99.675781 C 246.296875 99.53125 246.652344 99.421875 247.019531 99.351562 C 247.386719 99.277344 247.757812 99.242188 248.132812 99.242188 C 248.503906 99.242188 248.875 99.277344 249.242188 99.351562 C 249.609375 99.421875 249.964844 99.53125 250.308594 99.675781 C 250.652344 99.816406 250.980469 99.992188 251.292969 100.199219 C 251.605469 100.410156 251.890625 100.644531 252.15625 100.910156 C 252.417969 101.171875 252.65625 101.460938 252.863281 101.769531 C 253.070312 102.082031 253.246094 102.410156 253.390625 102.753906 C 253.53125 103.101562 253.640625 103.457031 253.714844 103.824219 C 253.785156 104.1875 253.824219 104.558594 253.824219 104.933594 L 253.824219 169.589844 C 253.824219 169.960938 253.785156 170.332031 253.714844 170.699219 C 253.640625 171.066406 253.53125 171.421875 253.390625 171.765625 C 253.246094 172.113281 253.070312 172.441406 252.863281 172.75 C 252.65625 173.0625 252.417969 173.347656 252.15625 173.613281 C 251.890625 173.878906 251.605469 174.113281 251.292969 174.320312 C 250.980469 174.527344 250.652344 174.703125 250.308594 174.847656 C 249.964844 174.988281 249.609375 175.097656 249.242188 175.171875 C 248.875 175.242188 248.503906 175.28125 248.132812 175.28125 Z M 248.132812 175.28125 " fill-opacity="1" fill-rule="nonzero"/><path fill="#ffffff" d="M 196.90625 129.746094 L 174.140625 129.746094 C 173.769531 129.746094 173.398438 129.710938 173.03125 129.636719 C 172.664062 129.566406 172.308594 129.457031 171.964844 129.316406 C 171.617188 129.171875 171.289062 128.996094 170.980469 128.789062 C 170.667969 128.582031 170.382812 128.34375 170.117188 128.082031 C 169.851562 127.816406 169.617188 127.527344 169.410156 127.21875 C 169.203125 126.90625 169.027344 126.578125 168.882812 126.234375 C 168.738281 125.890625 168.632812 125.535156 168.558594 125.167969 C 168.488281 124.800781 168.449219 124.429688 168.449219 124.054688 L 168.449219 101.289062 C 168.449219 100.917969 168.488281 100.546875 168.558594 100.179688 C 168.632812 99.8125 168.738281 99.457031 168.882812 99.113281 C 169.027344 98.765625 169.203125 98.4375 169.410156 98.128906 C 169.617188 97.816406 169.851562 97.53125 170.117188 97.265625 C 170.382812 97 170.667969 96.765625 170.980469 96.558594 C 171.289062 96.351562 171.617188 96.175781 171.964844 96.03125 C 172.308594 95.890625 172.664062 95.78125 173.03125 95.707031 C 173.398438 95.636719 173.769531 95.597656 174.140625 95.597656 L 196.90625 95.597656 C 197.28125 95.597656 197.652344 95.636719 198.019531 95.707031 C 198.382812 95.78125 198.738281 95.890625 199.085938 96.03125 C 199.429688 96.175781 199.757812 96.351562 200.070312 96.558594 C 200.378906 96.765625 200.667969 97 200.933594 97.265625 C 201.195312 97.53125 201.433594 97.816406 201.640625 98.128906 C 201.847656 98.4375 202.023438 98.765625 202.164062 99.113281 C 202.308594 99.457031 202.417969 99.8125 202.488281 100.179688 C 202.5625 100.546875 202.597656 100.917969 202.597656 101.289062 L 202.597656 124.054688 C 202.597656 124.429688 202.5625 124.800781 202.488281 125.167969 C 202.417969 125.535156 202.308594 125.890625 202.164062 126.234375 C 202.023438 126.578125 201.847656 126.90625 201.640625 127.21875 C 201.433594 127.527344 201.195312 127.816406 200.933594 128.082031 C 200.667969 128.34375 200.378906 128.582031 200.070312 128.789062 C 199.757812 128.996094 199.429688 129.171875 199.085938 129.316406 C 198.738281 129.457031 198.382812 129.566406 198.019531 129.636719 C 197.652344 129.710938 197.28125 129.746094 196.90625 129.746094 Z M 179.832031 118.363281 L 191.214844 118.363281 L 191.214844 106.980469 L 179.832031 106.980469 Z M 179.832031 118.363281 " fill-opacity="1" fill-rule="nonzero"/></svg>