<svg xmlns="http://www.w3.org/2000/svg" xmlns:xlink="http://www.w3.org/1999/xlink" width="500" zoomAndPan="magnify" viewBox="0 0 375 374.999991" height="500" preserveAspectRatio="xMidYMid meet" version="1.0"><defs><clipPath id="141ceaa6b2"><path d="M 68 77.34375 L 195 77.34375 L 195 124 L 68 124 Z M 68 77.34375 " clip-rule="nonzero"/></clipPath><clipPath id="0d78d058bf"><path d="M 1 207 L 91 207 L 91 297.84375 L 1 297.84375 Z M 1 207 " clip-rule="nonzero"/></clipPath><clipPath id="b476be0e6f"><path d="M 206 218 L 333 218 L 333 297.84375 L 206 297.84375 Z M 206 218 " clip-rule="nonzero"/></clipPath><clipPath id="a9378bc065"><path d="M 0 115 L 263 115 L 263 297.84375 L 0 297.84375 Z M 0 115 " clip-rule="nonzero"/></clipPath></defs><path fill="#ffffff" d="M 119.15625 198.515625 L 144.507812 198.515625 L 144.507812 155.683594 L 119.15625 155.683594 Z M 148.800781 207.109375 L 114.863281 207.109375 C 112.480469 207.109375 110.570312 205.1875 110.570312 202.8125 L 110.570312 151.386719 C 110.570312 149.011719 112.480469 147.089844 114.863281 147.089844 L 148.8125 147.089844 C 151.183594 147.089844 153.105469 149.011719 153.105469 151.386719 L 153.105469 202.8125 C 153.09375 205.175781 151.171875 207.109375 148.800781 207.109375 Z M 148.800781 207.109375 " fill-opacity="1" fill-rule="evenodd"/><g clip-path="url(#141ceaa6b2)"><path fill="#ffffff" d="M 189.847656 123.878906 C 187.472656 123.878906 185.554688 121.957031 185.554688 119.582031 L 185.554688 100.621094 C 185.554688 92.535156 178.84375 85.960938 170.578125 85.960938 L 91.671875 85.960938 C 83.40625 85.960938 76.699219 92.535156 76.699219 100.621094 L 76.699219 119.582031 C 76.699219 121.957031 74.777344 123.878906 72.40625 123.878906 C 70.03125 123.878906 68.109375 121.957031 68.109375 119.582031 L 68.109375 100.621094 C 68.109375 87.808594 78.683594 77.378906 91.671875 77.378906 L 170.578125 77.378906 C 183.566406 77.378906 194.128906 87.808594 194.128906 100.621094 L 194.128906 119.582031 C 194.140625 121.957031 192.21875 123.878906 189.847656 123.878906 Z M 189.847656 123.878906 " fill-opacity="1" fill-rule="evenodd"/></g><path fill="#ffffff" d="M 114.863281 181.378906 L 5.675781 181.378906 C 3.300781 181.378906 1.378906 179.457031 1.378906 177.082031 C 1.378906 174.707031 3.300781 172.785156 5.675781 172.785156 L 114.863281 172.785156 C 117.238281 172.785156 119.15625 174.707031 119.15625 177.082031 C 119.15625 179.457031 117.226562 181.378906 114.863281 181.378906 Z M 257.945312 181.378906 L 148.800781 181.378906 C 146.425781 181.378906 144.507812 179.457031 144.507812 177.082031 C 144.507812 174.707031 146.425781 172.785156 148.800781 172.785156 L 257.9375 172.785156 C 260.308594 172.785156 262.230469 174.707031 262.230469 177.082031 C 262.238281 179.457031 260.320312 181.378906 257.945312 181.378906 Z M 257.945312 181.378906 " fill-opacity="1" fill-rule="evenodd"/><g clip-path="url(#0d78d058bf)"><path fill="#ffffff" d="M 86.417969 297.171875 C 85.316406 297.171875 84.214844 296.75 83.386719 295.910156 L 2.644531 215.097656 C 0.972656 213.425781 0.972656 210.703125 2.644531 209.019531 C 4.316406 207.347656 7.035156 207.347656 8.714844 209.019531 L 89.460938 289.832031 C 91.132812 291.503906 91.132812 294.226562 89.460938 295.910156 C 88.617188 296.761719 87.507812 297.171875 86.417969 297.171875 Z M 86.417969 297.171875 " fill-opacity="1" fill-rule="evenodd"/></g><g clip-path="url(#b476be0e6f)"><path fill="#ffffff" d="M 269.5 297.808594 C 239.285156 297.808594 206.75 285.308594 206.75 257.851562 L 206.75 223.097656 C 206.75 220.722656 208.671875 218.800781 211.042969 218.800781 C 213.417969 218.800781 215.335938 220.722656 215.335938 223.097656 L 215.335938 257.839844 C 215.335938 278.429688 242.574219 289.207031 269.488281 289.207031 C 296.402344 289.207031 323.640625 278.429688 323.640625 257.839844 L 323.640625 223.085938 C 323.640625 220.710938 325.5625 218.789062 327.933594 218.789062 C 330.308594 218.789062 332.226562 220.710938 332.226562 223.085938 L 332.226562 257.832031 C 332.25 285.296875 299.726562 297.808594 269.5 297.808594 Z M 269.5 297.808594 " fill-opacity="1" fill-rule="evenodd"/></g><path fill="#ffffff" d="M 185.746094 212.203125 L 269.511719 233.550781 L 353.273438 212.203125 L 269.511719 190.957031 Z M 269.5 242.292969 C 269.144531 242.292969 268.796875 242.25 268.441406 242.164062 L 167.246094 216.371094 C 165.335938 215.886719 164.011719 214.167969 164.019531 212.203125 C 164.019531 210.238281 165.359375 208.523438 167.257812 208.046875 L 268.464844 182.375 C 269.144531 182.191406 269.878906 182.191406 270.566406 182.375 L 371.765625 208.046875 C 373.671875 208.535156 375 210.238281 375 212.214844 C 375 214.179688 373.664062 215.898438 371.765625 216.382812 L 270.566406 242.164062 C 270.222656 242.25 269.855469 242.292969 269.5 242.292969 Z M 269.5 242.292969 " fill-opacity="1" fill-rule="evenodd"/><path fill="#ffffff" d="M 362.84375 271.941406 C 360.46875 271.941406 358.550781 270.019531 358.550781 267.644531 L 358.550781 214.203125 C 358.550781 211.828125 360.46875 209.90625 362.84375 209.90625 C 365.214844 209.90625 367.136719 211.828125 367.136719 214.203125 L 367.136719 267.644531 C 367.136719 270.019531 365.207031 271.941406 362.84375 271.941406 Z M 362.84375 271.941406 " fill-opacity="1" fill-rule="evenodd"/><g clip-path="url(#a9378bc065)"><path fill="#ffffff" d="M 237.300781 297.808594 L 24.949219 297.808594 C 11.195312 297.808594 0 286.613281 0 272.847656 L 0 140.257812 C 0 126.492188 11.1875 115.292969 24.941406 115.292969 L 237.289062 115.292969 C 251.042969 115.292969 262.230469 126.492188 262.230469 140.257812 L 262.230469 189.46875 C 262.230469 191.84375 260.296875 193.765625 257.9375 193.765625 C 255.5625 193.765625 253.640625 191.84375 253.640625 189.46875 L 253.640625 140.257812 C 253.640625 131.230469 246.308594 123.890625 237.289062 123.890625 L 24.941406 123.890625 C 15.921875 123.890625 8.585938 131.230469 8.585938 140.257812 L 8.585938 272.847656 C 8.585938 281.875 15.921875 289.214844 24.941406 289.214844 L 237.289062 289.214844 C 240.007812 289.214844 242.703125 288.523438 245.089844 287.230469 C 247.171875 286.085938 249.78125 286.851562 250.925781 288.933594 C 252.066406 291.019531 251.300781 293.632812 249.21875 294.777344 C 245.574219 296.75 241.453125 297.808594 237.300781 297.808594 Z M 237.300781 297.808594 " fill-opacity="1" fill-rule="evenodd"/></g></svg>