<svg xmlns="http://www.w3.org/2000/svg" xmlns:xlink="http://www.w3.org/1999/xlink" width="500" zoomAndPan="magnify" viewBox="0 0 375 374.999991" height="500" preserveAspectRatio="xMidYMid meet" version="1.0"><defs><clipPath id="3e79eb09c9"><path d="M 116.625 112.5 L 258.375 112.5 L 258.375 262.5 L 116.625 262.5 Z M 116.625 112.5 " clip-rule="nonzero"/></clipPath></defs><g clip-path="url(#3e79eb09c9)"><path fill="#ffffff" d="M 187.289062 235.984375 C 178.621094 235.984375 171.574219 228.917969 171.574219 220.246094 C 171.574219 211.597656 178.621094 204.53125 187.289062 204.53125 C 195.957031 204.53125 203.003906 211.597656 203.003906 220.246094 C 203.003906 228.917969 195.957031 235.984375 187.289062 235.984375 Z M 255.824219 201.496094 L 206.167969 201.496094 C 210.957031 206.304688 213.929688 212.949219 213.929688 220.246094 C 213.929688 234.949219 201.96875 246.890625 187.289062 246.890625 C 172.609375 246.890625 160.648438 234.949219 160.648438 220.246094 C 160.648438 212.949219 163.621094 206.304688 168.410156 201.496094 L 154.488281 201.496094 C 151.894531 206.199219 150.25 211.492188 149.867188 217.148438 L 156.089844 217.148438 C 157.0625 217.148438 157.949219 217.695312 158.371094 218.582031 C 158.8125 219.445312 158.707031 220.480469 158.117188 221.261719 L 149.152344 232.863281 C 148.6875 233.496094 147.929688 233.851562 147.148438 233.851562 C 147.148438 233.851562 147.125 233.851562 147.125 233.851562 C 146.347656 233.851562 145.585938 233.472656 145.101562 232.839844 L 136.347656 221.238281 C 135.777344 220.457031 135.671875 219.425781 136.117188 218.558594 C 136.539062 217.695312 137.421875 217.148438 138.394531 217.148438 L 144.765625 217.148438 C 145.101562 211.578125 146.492188 206.285156 148.773438 201.496094 L 119.15625 201.496094 C 117.765625 201.496094 116.625 200.355469 116.625 198.941406 L 116.625 125.179688 C 116.625 123.765625 117.765625 122.625 119.15625 122.625 L 139.132812 122.625 L 139.132812 115.054688 C 139.132812 113.640625 140.269531 112.5 141.664062 112.5 L 154.785156 112.5 C 156.195312 112.5 157.335938 113.640625 157.335938 115.054688 L 157.335938 122.625 L 178.386719 122.625 L 178.386719 115.054688 C 178.386719 113.640625 179.527344 112.5 180.941406 112.5 L 194.039062 112.5 C 195.453125 112.5 196.589844 113.640625 196.589844 115.054688 L 196.589844 122.625 L 217.664062 122.625 L 217.664062 115.054688 C 217.664062 113.640625 218.804688 112.5 220.195312 112.5 L 233.316406 112.5 C 234.707031 112.5 235.867188 113.640625 235.867188 115.054688 L 235.867188 122.625 L 255.824219 122.625 C 257.214844 122.625 258.375 123.765625 258.375 125.179688 L 258.375 198.941406 C 258.375 200.355469 257.214844 201.496094 255.824219 201.496094 Z M 199.121094 196.390625 L 253.269531 196.390625 L 253.269531 127.730469 L 235.867188 127.730469 L 235.867188 135.304688 C 235.867188 136.714844 234.707031 137.855469 233.316406 137.855469 L 220.195312 137.855469 C 218.804688 137.855469 217.644531 136.714844 217.644531 135.304688 L 217.644531 127.730469 L 196.589844 127.730469 L 196.589844 135.304688 C 196.589844 136.714844 195.453125 137.855469 194.039062 137.855469 L 180.941406 137.855469 C 179.527344 137.855469 178.386719 136.714844 178.386719 135.304688 L 178.386719 127.730469 L 157.335938 127.730469 L 157.335938 135.304688 C 157.335938 136.714844 156.195312 137.855469 154.785156 137.855469 L 141.664062 137.855469 C 140.269531 137.855469 139.132812 136.714844 139.132812 135.304688 L 139.132812 127.730469 L 121.707031 127.730469 L 121.707031 196.390625 L 151.621094 196.390625 C 159.253906 184.664062 172.480469 176.898438 187.5 176.898438 C 198.449219 176.898438 208.867188 181.035156 216.839844 188.566406 C 217.875 189.515625 217.917969 191.136719 216.945312 192.152344 C 215.996094 193.183594 214.375 193.226562 213.359375 192.257812 C 206.335938 185.632812 197.140625 182.003906 187.5 182.003906 C 175.496094 182.003906 164.78125 187.636719 157.882812 196.390625 L 175.457031 196.390625 C 179.019531 194.617188 183.050781 193.628906 187.289062 193.628906 C 191.527344 193.628906 195.558594 194.617188 199.121094 196.390625 Z M 144.214844 125.15625 L 144.214844 132.75 L 152.230469 132.75 L 152.230469 117.605469 L 144.214844 117.605469 Z M 191.507812 125.199219 L 191.507812 117.605469 L 183.492188 117.605469 L 183.492188 132.75 L 191.507812 132.75 Z M 222.746094 132.75 L 230.761719 132.75 L 230.761719 117.605469 L 222.746094 117.605469 Z M 161.46875 172.238281 L 129.21875 172.238281 C 127.824219 172.238281 126.6875 171.097656 126.6875 169.707031 L 126.6875 145.152344 C 126.6875 143.742188 127.824219 142.601562 129.21875 142.601562 L 161.46875 142.601562 C 162.882812 142.601562 164.023438 143.742188 164.023438 145.152344 L 164.023438 169.707031 C 164.023438 171.097656 162.882812 172.238281 161.46875 172.238281 Z M 131.769531 167.15625 L 158.9375 167.15625 L 158.9375 147.707031 L 131.769531 147.707031 Z M 203.617188 172.238281 L 171.363281 172.238281 C 169.949219 172.238281 168.8125 171.097656 168.8125 169.707031 L 168.8125 145.152344 C 168.8125 143.742188 169.949219 142.601562 171.363281 142.601562 L 203.617188 142.601562 C 205.027344 142.601562 206.167969 143.742188 206.167969 145.152344 L 206.167969 169.707031 C 206.167969 171.097656 205.027344 172.238281 203.617188 172.238281 Z M 173.914062 167.15625 L 201.0625 167.15625 L 201.0625 147.707031 L 173.914062 147.707031 Z M 245.761719 172.238281 L 213.507812 172.238281 C 212.09375 172.238281 210.957031 171.097656 210.957031 169.707031 L 210.957031 145.152344 C 210.957031 143.742188 212.09375 142.601562 213.507812 142.601562 L 245.761719 142.601562 C 247.152344 142.601562 248.292969 143.742188 248.292969 145.152344 L 248.292969 169.707031 C 248.292969 171.097656 247.152344 172.238281 245.761719 172.238281 Z M 216.039062 167.15625 L 243.207031 167.15625 L 243.207031 147.707031 L 216.039062 147.707031 Z M 142.316406 165.066406 C 141.664062 165.066406 141.007812 164.8125 140.503906 164.308594 L 136.433594 160.234375 C 135.441406 159.222656 135.441406 157.621094 136.433594 156.628906 C 137.421875 155.636719 139.027344 155.636719 140.019531 156.628906 L 142.316406 158.90625 L 150.671875 150.554688 C 151.683594 149.542969 153.285156 149.542969 154.277344 150.554688 C 155.269531 151.546875 155.269531 153.148438 154.277344 154.140625 L 144.109375 164.308594 C 143.625 164.8125 142.972656 165.066406 142.316406 165.066406 Z M 184.441406 165.066406 C 183.808594 165.066406 183.15625 164.8125 182.648438 164.308594 L 178.554688 160.234375 C 177.566406 159.222656 177.566406 157.621094 178.554688 156.628906 C 179.546875 155.636719 181.171875 155.636719 182.164062 156.628906 L 184.441406 158.90625 L 192.816406 150.554688 C 193.808594 149.542969 195.429688 149.542969 196.421875 150.554688 C 197.414062 151.546875 197.414062 153.148438 196.421875 154.140625 L 186.253906 164.308594 C 185.75 164.8125 185.09375 165.066406 184.441406 165.066406 Z M 226.585938 165.066406 C 225.933594 165.066406 225.277344 164.8125 224.792969 164.308594 L 220.703125 160.234375 C 219.710938 159.222656 219.710938 157.621094 220.703125 156.628906 C 221.691406 155.636719 223.316406 155.636719 224.308594 156.628906 L 226.585938 158.90625 L 234.960938 150.554688 C 235.953125 149.542969 237.554688 149.542969 238.546875 150.554688 C 239.558594 151.546875 239.558594 153.148438 238.546875 154.140625 L 228.378906 164.308594 C 227.894531 164.8125 227.242188 165.066406 226.585938 165.066406 Z M 187.5 262.5 L 128.773438 262.5 C 127.363281 262.5 126.222656 261.359375 126.222656 259.945312 C 126.222656 258.554688 127.363281 257.394531 128.773438 257.394531 L 187.5 257.394531 C 207.433594 257.394531 223.800781 241.847656 225.109375 222.25 L 218.886719 222.25 C 217.917969 222.25 217.03125 221.703125 216.609375 220.839844 C 216.1875 219.972656 216.273438 218.941406 216.863281 218.160156 L 225.617188 206.558594 C 226.101562 205.925781 226.839844 205.546875 227.640625 205.546875 C 228.441406 205.546875 229.179688 205.902344 229.667969 206.535156 L 238.609375 218.136719 C 239.199219 218.917969 239.304688 219.953125 238.882812 220.816406 C 238.460938 221.703125 237.554688 222.25 236.585938 222.25 L 230.214844 222.25 C 228.886719 244.675781 210.238281 262.5 187.5 262.5 Z M 227.726562 217.148438 L 231.417969 217.148438 L 227.664062 212.296875 L 223.992188 217.148438 Z M 143.5 222.25 L 147.167969 227.101562 L 150.921875 222.25 Z M 187.289062 198.710938 C 175.414062 198.710938 165.753906 208.371094 165.753906 220.246094 C 165.753906 232.144531 175.414062 241.804688 187.289062 241.804688 C 199.164062 241.804688 208.824219 232.144531 208.824219 220.246094 C 208.824219 208.371094 199.164062 198.710938 187.289062 198.710938 Z M 187.289062 209.636719 C 181.425781 209.636719 176.65625 214.40625 176.65625 220.246094 C 176.65625 226.113281 181.425781 230.878906 187.289062 230.878906 C 193.152344 230.878906 197.921875 226.113281 197.921875 220.246094 C 197.921875 214.40625 193.152344 209.636719 187.289062 209.636719 Z M 187.289062 209.636719 " fill-opacity="1" fill-rule="evenodd"/></g></svg>