<svg xmlns="http://www.w3.org/2000/svg" xmlns:xlink="http://www.w3.org/1999/xlink" width="500" zoomAndPan="magnify" viewBox="0 0 375 374.999991" height="500" preserveAspectRatio="xMidYMid meet" version="1.0"><defs><clipPath id="da2d0aeade"><path d="M 10.3125 0 L 365.0625 0 L 365.0625 375 L 10.3125 375 Z M 10.3125 0 " clip-rule="nonzero"/></clipPath></defs><g clip-path="url(#da2d0aeade)"><path fill="#ffffff" d="M 187.160156 308.710938 C 165.460938 308.710938 147.832031 291.042969 147.832031 269.371094 C 147.832031 247.75 165.460938 230.082031 187.160156 230.082031 C 208.855469 230.082031 226.488281 247.75 226.488281 269.371094 C 226.488281 291.042969 208.855469 308.710938 187.160156 308.710938 Z M 358.675781 222.488281 L 234.40625 222.488281 C 246.390625 234.511719 253.832031 251.125 253.832031 269.371094 C 253.832031 306.125 223.902344 335.972656 187.160156 335.972656 C 150.417969 335.972656 120.484375 306.125 120.484375 269.371094 C 120.484375 251.125 127.929688 234.511719 139.914062 222.488281 L 105.070312 222.488281 C 98.578125 234.25 94.460938 247.484375 93.511719 261.617188 L 109.082031 261.617188 C 111.511719 261.617188 113.726562 262.988281 114.785156 265.203125 C 115.894531 267.367188 115.628906 269.949219 114.152344 271.902344 L 91.714844 300.90625 C 90.554688 302.488281 88.652344 303.382812 86.699219 303.382812 C 86.699219 303.382812 86.648438 303.382812 86.648438 303.382812 C 84.695312 303.382812 82.792969 302.433594 81.578125 300.851562 L 59.671875 271.847656 C 58.246094 269.898438 57.980469 267.3125 59.089844 265.152344 C 60.144531 262.988281 62.363281 261.617188 64.792969 261.617188 L 80.734375 261.617188 C 81.578125 247.695312 85.0625 234.460938 90.765625 222.488281 L 16.648438 222.488281 C 13.164062 222.488281 10.3125 219.640625 10.3125 216.109375 L 10.3125 31.695312 C 10.3125 28.164062 13.164062 25.316406 16.648438 25.316406 L 66.640625 25.316406 L 66.640625 6.382812 C 66.640625 2.851562 69.492188 0.00390625 72.972656 0.00390625 L 105.808594 0.00390625 C 109.347656 0.00390625 112.199219 2.851562 112.199219 6.382812 L 112.199219 25.316406 L 164.882812 25.316406 L 164.882812 6.382812 C 164.882812 2.851562 167.734375 0.00390625 171.269531 0.00390625 L 204.050781 0.00390625 C 207.589844 0.00390625 210.441406 2.851562 210.441406 6.382812 L 210.441406 25.316406 L 263.175781 25.316406 L 263.175781 6.382812 C 263.175781 2.851562 266.027344 0.00390625 269.511719 0.00390625 L 302.347656 0.00390625 C 305.832031 0.00390625 308.734375 2.851562 308.734375 6.382812 L 308.734375 25.316406 L 358.675781 25.316406 C 362.160156 25.316406 365.0625 28.164062 365.0625 31.695312 L 365.0625 216.109375 C 365.0625 219.640625 362.160156 222.488281 358.675781 222.488281 Z M 216.773438 209.726562 L 352.289062 209.726562 L 352.289062 38.078125 L 308.734375 38.078125 L 308.734375 57.007812 C 308.734375 60.542969 305.832031 63.390625 302.347656 63.390625 L 269.511719 63.390625 C 266.027344 63.390625 263.125 60.542969 263.125 57.007812 L 263.125 38.078125 L 210.441406 38.078125 L 210.441406 57.007812 C 210.441406 60.542969 207.589844 63.390625 204.050781 63.390625 L 171.269531 63.390625 C 167.734375 63.390625 164.882812 60.542969 164.882812 57.007812 L 164.882812 38.078125 L 112.199219 38.078125 L 112.199219 57.007812 C 112.199219 60.542969 109.347656 63.390625 105.808594 63.390625 L 72.972656 63.390625 C 69.492188 63.390625 66.640625 60.542969 66.640625 57.007812 L 66.640625 38.078125 L 23.035156 38.078125 L 23.035156 209.726562 L 97.890625 209.726562 C 117 180.40625 150.101562 161 187.6875 161 C 215.085938 161 241.164062 171.335938 261.117188 190.164062 C 263.707031 192.535156 263.8125 196.597656 261.382812 199.128906 C 259.007812 201.710938 254.941406 201.816406 252.410156 199.390625 C 234.828125 182.832031 211.8125 173.761719 187.6875 173.761719 C 157.648438 173.761719 130.832031 187.84375 113.570312 209.726562 L 157.542969 209.726562 C 166.464844 205.296875 176.546875 202.820312 187.160156 202.820312 C 197.769531 202.820312 207.851562 205.296875 216.773438 209.726562 Z M 79.363281 31.644531 L 79.363281 50.628906 L 99.421875 50.628906 L 99.421875 12.765625 L 79.363281 12.765625 Z M 197.71875 31.75 L 197.71875 12.765625 L 177.65625 12.765625 L 177.65625 50.628906 L 197.71875 50.628906 Z M 275.898438 50.628906 L 295.960938 50.628906 L 295.960938 12.765625 L 275.898438 12.765625 Z M 122.542969 149.347656 L 41.828125 149.347656 C 38.34375 149.347656 35.492188 146.5 35.492188 143.019531 L 35.492188 81.636719 C 35.492188 78.101562 38.34375 75.253906 41.828125 75.253906 L 122.542969 75.253906 C 126.082031 75.253906 128.933594 78.101562 128.933594 81.636719 L 128.933594 143.019531 C 128.933594 146.5 126.082031 149.347656 122.542969 149.347656 Z M 48.214844 136.636719 L 116.210938 136.636719 L 116.210938 88.015625 L 48.214844 88.015625 Z M 228.019531 149.347656 L 147.304688 149.347656 C 143.765625 149.347656 140.914062 146.5 140.914062 143.019531 L 140.914062 81.636719 C 140.914062 78.101562 143.765625 75.253906 147.304688 75.253906 L 228.019531 75.253906 C 231.554688 75.253906 234.40625 78.101562 234.40625 81.636719 L 234.40625 143.019531 C 234.40625 146.5 231.554688 149.347656 228.019531 149.347656 Z M 153.691406 136.636719 L 221.632812 136.636719 L 221.632812 88.015625 L 153.691406 88.015625 Z M 333.492188 149.347656 L 252.777344 149.347656 C 249.242188 149.347656 246.390625 146.5 246.390625 143.019531 L 246.390625 81.636719 C 246.390625 78.101562 249.242188 75.253906 252.777344 75.253906 L 333.492188 75.253906 C 336.976562 75.253906 339.828125 78.101562 339.828125 81.636719 L 339.828125 143.019531 C 339.828125 146.5 336.976562 149.347656 333.492188 149.347656 Z M 259.113281 136.636719 L 327.105469 136.636719 L 327.105469 88.015625 L 259.113281 88.015625 Z M 74.609375 131.417969 C 72.972656 131.417969 71.339844 130.785156 70.070312 129.519531 L 59.882812 119.339844 C 57.402344 116.808594 57.402344 112.800781 59.882812 110.324219 C 62.363281 107.84375 66.375 107.84375 68.855469 110.324219 L 74.609375 116.019531 L 95.515625 95.136719 C 98.050781 92.605469 102.0625 92.605469 104.542969 95.136719 C 107.023438 97.613281 107.023438 101.621094 104.542969 104.101562 L 79.097656 129.519531 C 77.882812 130.785156 76.246094 131.417969 74.609375 131.417969 Z M 180.03125 131.417969 C 178.449219 131.417969 176.8125 130.785156 175.546875 129.519531 L 165.304688 119.339844 C 162.824219 116.808594 162.824219 112.800781 165.304688 110.324219 C 167.785156 107.84375 171.851562 107.84375 174.332031 110.324219 L 180.03125 116.019531 L 200.992188 95.136719 C 203.472656 92.605469 207.535156 92.605469 210.019531 95.136719 C 212.5 97.613281 212.5 101.621094 210.019531 104.101562 L 184.574219 129.519531 C 183.304688 130.785156 181.667969 131.417969 180.03125 131.417969 Z M 285.507812 131.417969 C 283.871094 131.417969 282.234375 130.785156 281.019531 129.519531 L 270.777344 119.339844 C 268.296875 116.808594 268.296875 112.800781 270.777344 110.324219 C 273.261719 107.84375 277.324219 107.84375 279.804688 110.324219 L 285.507812 116.019531 L 306.464844 95.136719 C 308.945312 92.605469 312.957031 92.605469 315.441406 95.136719 C 317.972656 97.613281 317.972656 101.621094 315.441406 104.101562 L 289.996094 129.519531 C 288.78125 130.785156 287.144531 131.417969 285.507812 131.417969 Z M 187.6875 374.996094 L 40.71875 374.996094 C 37.183594 374.996094 34.332031 372.148438 34.332031 368.617188 C 34.332031 365.136719 37.183594 362.234375 40.71875 362.234375 L 187.6875 362.234375 C 237.574219 362.234375 278.539062 323.371094 281.8125 274.378906 L 266.238281 274.378906 C 263.8125 274.378906 261.59375 273.007812 260.539062 270.847656 C 259.480469 268.683594 259.691406 266.101562 261.171875 264.148438 L 283.078125 235.144531 C 284.292969 233.5625 286.140625 232.613281 288.148438 232.613281 C 290.152344 232.613281 292 233.511719 293.214844 235.09375 L 315.597656 264.097656 C 317.078125 266.046875 317.339844 268.632812 316.285156 270.792969 C 315.230469 273.007812 312.957031 274.378906 310.53125 274.378906 L 294.585938 274.378906 C 291.261719 330.4375 244.59375 374.996094 187.6875 374.996094 Z M 288.359375 261.617188 L 297.597656 261.617188 L 288.199219 249.488281 L 279.015625 261.617188 Z M 77.566406 274.378906 L 86.753906 286.507812 L 96.148438 274.378906 Z M 187.160156 215.527344 C 157.4375 215.527344 133.261719 239.679688 133.261719 269.371094 C 133.261719 299.113281 157.4375 323.265625 187.160156 323.265625 C 216.878906 323.265625 241.058594 299.113281 241.058594 269.371094 C 241.058594 239.679688 216.878906 215.527344 187.160156 215.527344 Z M 187.160156 242.84375 C 172.484375 242.84375 160.554688 254.761719 160.554688 269.371094 C 160.554688 284.03125 172.484375 295.949219 187.160156 295.949219 C 201.835938 295.949219 213.765625 284.03125 213.765625 269.371094 C 213.765625 254.761719 201.835938 242.84375 187.160156 242.84375 Z M 187.160156 242.84375 " fill-opacity="1" fill-rule="evenodd"/></g></svg>