<svg xmlns="http://www.w3.org/2000/svg" xmlns:xlink="http://www.w3.org/1999/xlink" width="500" zoomAndPan="magnify" viewBox="0 0 375 374.999991" height="500" preserveAspectRatio="xMidYMid meet" version="1.0"><defs><clipPath id="b9eb4a2a07"><path d="M 0 112 L 375 112 L 375 347.390625 L 0 347.390625 Z M 0 112 " clip-rule="nonzero"/></clipPath><clipPath id="2b40cde5f5"><path d="M 93 27.890625 L 293 27.890625 L 293 295 L 93 295 Z M 93 27.890625 " clip-rule="nonzero"/></clipPath></defs><g clip-path="url(#b9eb4a2a07)"><path fill="#ffffff" d="M 354.429688 306.355469 L 345.644531 306.355469 L 345.644531 296.679688 C 343.886719 297.265625 341.835938 297.558594 340.082031 297.558594 L 339.789062 297.558594 C 337.738281 297.558594 335.980469 297.265625 334.222656 296.679688 L 334.222656 306.355469 L 41.070312 306.355469 L 41.070312 130.480469 C 41.070312 127.257812 43.707031 124.621094 46.925781 124.621094 L 82.070312 124.621094 L 82.070312 112.894531 L 46.925781 112.894531 C 37.261719 112.894531 29.355469 120.808594 29.355469 130.480469 L 29.355469 306.355469 L 20.570312 306.355469 C 9.148438 306.355469 0.0703125 315.441406 0.0703125 326.871094 C 0.0703125 338.304688 9.148438 347.390625 20.570312 347.390625 L 354.429688 347.390625 C 365.851562 347.390625 374.929688 338.304688 374.929688 326.871094 C 374.929688 315.441406 365.851562 306.355469 354.429688 306.355469 Z M 354.429688 335.664062 L 20.570312 335.664062 C 15.589844 335.664062 11.785156 331.855469 11.785156 326.871094 C 11.785156 321.890625 15.589844 318.078125 20.570312 318.078125 L 354.429688 318.078125 C 359.410156 318.078125 363.214844 321.890625 363.214844 326.871094 C 363.214844 331.855469 359.410156 335.664062 354.429688 335.664062 Z M 354.429688 335.664062 " fill-opacity="1" fill-rule="nonzero"/></g><path fill="#ffffff" d="M 128.929688 80.652344 L 205.070312 80.652344 C 208.292969 80.652344 210.929688 78.015625 210.929688 74.789062 C 210.929688 71.566406 208.292969 68.925781 205.070312 68.925781 L 128.929688 68.925781 C 125.707031 68.925781 123.070312 71.566406 123.070312 74.789062 C 123.070312 78.015625 125.707031 80.652344 128.929688 80.652344 Z M 128.929688 80.652344 " fill-opacity="1" fill-rule="nonzero"/><path fill="#ffffff" d="M 128.929688 104.101562 L 257.785156 104.101562 C 261.007812 104.101562 263.644531 101.464844 263.644531 98.238281 C 263.644531 95.015625 261.007812 92.375 257.785156 92.375 L 128.929688 92.375 C 125.707031 92.375 123.070312 95.015625 123.070312 98.238281 C 123.070312 101.464844 125.707031 104.101562 128.929688 104.101562 Z M 128.929688 104.101562 " fill-opacity="1" fill-rule="nonzero"/><path fill="#ffffff" d="M 128.929688 127.550781 L 175.785156 127.550781 C 179.007812 127.550781 181.644531 124.914062 181.644531 121.6875 C 181.644531 118.464844 179.007812 115.828125 175.785156 115.828125 L 128.929688 115.828125 C 125.707031 115.828125 123.070312 118.464844 123.070312 121.6875 C 123.070312 124.914062 125.707031 127.550781 128.929688 127.550781 Z M 128.929688 127.550781 " fill-opacity="1" fill-rule="nonzero"/><path fill="#ffffff" d="M 257.785156 115.828125 L 199.214844 115.828125 C 195.992188 115.828125 193.355469 118.464844 193.355469 121.6875 C 193.355469 124.914062 195.992188 127.550781 199.214844 127.550781 L 257.785156 127.550781 C 261.007812 127.550781 263.644531 124.914062 263.644531 121.6875 C 263.644531 118.464844 261.007812 115.828125 257.785156 115.828125 Z M 257.785156 115.828125 " fill-opacity="1" fill-rule="nonzero"/><path fill="#ffffff" d="M 325.4375 238.058594 L 333.929688 281.144531 C 334.515625 283.785156 336.859375 285.835938 339.789062 285.835938 L 340.082031 285.835938 C 343.007812 285.835938 345.351562 283.785156 345.9375 281.144531 L 354.429688 238.058594 C 357.066406 224.574219 358.824219 215.195312 358.824219 199.660156 L 358.824219 199.074219 C 359.996094 197.898438 360.582031 196.433594 360.582031 194.96875 L 360.582031 77.722656 C 360.582031 66.289062 351.503906 57.203125 340.082031 57.203125 C 328.660156 57.203125 319.582031 66.289062 319.582031 77.722656 L 319.582031 194.96875 C 319.582031 196.726562 320.167969 198.191406 321.335938 199.074219 L 321.335938 199.660156 C 321.042969 215.488281 322.800781 224.574219 325.4375 238.058594 Z M 342.714844 235.710938 L 339.789062 250.660156 L 336.859375 235.710938 C 334.222656 222.230469 333.050781 214.019531 332.757812 200.832031 L 346.523438 200.832031 C 346.523438 214.316406 345.351562 222.230469 342.714844 235.710938 Z M 331.003906 77.722656 C 331.003906 72.738281 334.808594 68.925781 339.789062 68.925781 C 344.765625 68.925781 348.574219 72.738281 348.574219 77.722656 L 348.574219 86.515625 L 331.003906 86.515625 Z M 331.003906 98.238281 L 348.574219 98.238281 L 348.574219 189.105469 L 331.003906 189.105469 Z M 331.003906 98.238281 " fill-opacity="1" fill-rule="nonzero"/><g clip-path="url(#2b40cde5f5)"><path fill="#ffffff" d="M 99.640625 250.660156 C 97.589844 250.660156 95.835938 250.660156 93.785156 250.367188 L 93.785156 250.660156 C 93.785156 260.335938 101.691406 268.25 111.355469 268.25 L 164.65625 268.25 L 189.257812 292.871094 C 190.429688 294.042969 191.894531 294.628906 193.355469 294.628906 C 194.820312 294.628906 196.285156 294.042969 197.457031 292.871094 L 222.058594 268.25 L 275.359375 268.25 C 285.023438 268.25 292.929688 260.335938 292.929688 250.660156 L 292.929688 45.476562 C 292.929688 35.804688 285.023438 27.890625 275.359375 27.890625 L 111.355469 27.890625 C 101.691406 27.890625 93.785156 35.804688 93.785156 45.476562 L 93.785156 139.570312 C 95.835938 139.277344 97.589844 139.277344 99.640625 139.277344 C 101.691406 139.277344 103.449219 139.277344 105.5 139.570312 L 105.5 45.476562 C 105.5 42.253906 108.132812 39.617188 111.355469 39.617188 L 275.359375 39.617188 C 278.578125 39.617188 281.214844 42.253906 281.214844 45.476562 L 281.214844 250.660156 C 281.214844 253.886719 278.578125 256.523438 275.359375 256.523438 L 219.714844 256.523438 C 218.25 256.523438 216.785156 257.109375 215.613281 258.28125 L 193.355469 280.558594 L 171.101562 258.28125 C 169.929688 257.109375 168.464844 256.523438 167 256.523438 L 111.355469 256.523438 C 108.132812 256.523438 105.5 253.886719 105.5 250.660156 L 105.5 250.367188 C 103.449219 250.660156 101.691406 250.660156 99.640625 250.660156 Z M 99.640625 250.660156 " fill-opacity="1" fill-rule="nonzero"/></g><path fill="#ffffff" d="M 257.785156 151 C 261.007812 151 263.644531 148.363281 263.644531 145.136719 C 263.644531 141.914062 261.007812 139.277344 257.785156 139.277344 L 128.929688 139.277344 C 126 139.277344 123.363281 141.621094 123.070312 144.550781 C 126.878906 146.3125 130.390625 148.363281 133.613281 151 Z M 257.785156 151 " fill-opacity="1" fill-rule="nonzero"/><path fill="#ffffff" d="M 55.710938 194.96875 C 55.710938 219.296875 75.335938 238.9375 99.640625 238.9375 C 123.949219 238.9375 143.570312 219.296875 143.570312 194.96875 C 143.570312 170.640625 123.949219 151 99.640625 151 C 75.335938 151 55.710938 170.640625 55.710938 194.96875 Z M 99.640625 162.726562 C 117.507812 162.726562 131.855469 177.089844 131.855469 194.96875 C 131.855469 212.847656 117.507812 227.210938 99.640625 227.210938 C 81.777344 227.210938 67.425781 212.847656 67.425781 194.96875 C 67.425781 177.089844 81.777344 162.726562 99.640625 162.726562 Z M 99.640625 162.726562 " fill-opacity="1" fill-rule="nonzero"/><path fill="#ffffff" d="M 247.242188 208.453125 C 244.609375 210.796875 243.4375 211.96875 238.457031 210.210938 C 232.015625 208.160156 226.449219 208.453125 222.351562 211.089844 C 217.371094 214.609375 216.785156 220.175781 216.785156 220.761719 C 216.492188 223.988281 218.835938 226.917969 222.058594 226.917969 C 222.351562 226.917969 222.351562 226.917969 222.644531 226.917969 C 225.570312 226.917969 228.207031 224.574219 228.5 221.347656 C 228.5 221.347656 228.792969 220.761719 229.085938 220.46875 C 229.085938 220.46875 230.550781 219.589844 234.945312 221.054688 C 246.070312 224.574219 251.636719 219.882812 254.859375 216.953125 C 256.617188 215.488281 257.199219 215.195312 257.492188 215.195312 C 260.714844 215.488281 263.351562 212.847656 263.644531 209.625 C 263.644531 206.398438 261.300781 203.761719 258.078125 203.46875 C 252.808594 203.46875 249.585938 206.398438 247.242188 208.453125 Z M 247.242188 208.453125 " fill-opacity="1" fill-rule="nonzero"/><path fill="#ffffff" d="M 89.390625 209.039062 C 90.5625 210.210938 92.027344 210.796875 93.492188 210.796875 C 94.957031 210.796875 96.421875 210.210938 97.589844 209.039062 L 117.507812 189.105469 C 119.847656 186.761719 119.847656 183.242188 117.507812 180.898438 C 115.164062 178.554688 111.648438 178.554688 109.304688 180.898438 L 93.492188 196.726562 L 89.683594 192.917969 C 87.339844 190.570312 83.828125 190.570312 81.484375 192.917969 C 79.140625 195.261719 79.140625 198.777344 81.484375 201.125 Z M 89.390625 209.039062 " fill-opacity="1" fill-rule="nonzero"/><path fill="#ffffff" d="M 257.785156 174.449219 C 261.007812 174.449219 263.644531 171.8125 263.644531 168.585938 C 263.644531 165.363281 261.007812 162.726562 257.785156 162.726562 L 145.035156 162.726562 C 147.671875 166.242188 149.722656 170.347656 151.476562 174.449219 Z M 257.785156 174.449219 " fill-opacity="1" fill-rule="nonzero"/></svg>